<svg xmlns="http://www.w3.org/2000/svg" viewBox="0 0 70.89 92.35"><defs><style>.cls-1{isolation:isolate;}.cls-15,.cls-2{fill:#9e2e3b;}.cls-3{fill:#7b7b7b;}.cls-4{fill:#ff4555;}.cls-5{fill:#fff;}.cls-6{fill:#60c1d2;}.cls-7{fill:#dce1cb;}.cls-8{fill:#666;}.cls-11,.cls-9{fill:#ffae80;}.cls-10{fill:#ffbf86;}.cls-10,.cls-11,.cls-13,.cls-15{opacity:0.5;mix-blend-mode:multiply;}.cls-12,.cls-13{fill:#2d2856;}.cls-14{fill:#d6eeeb;}.cls-16,.cls-17{fill:#1d1d1b;}.cls-16{opacity:0.1;}.cls-18{fill:#0b1017;}</style></defs><g class="cls-1"><g id="Layer_2" data-name="Layer 2"><g id="Layer_1-2" data-name="Layer 1"><path class="cls-2" d="M37.41,47.37a.26.26,0,0,1-.07-.19.69.69,0,0,1,.31-.54.22.22,0,0,1,.2,0l14.27,8.23a.2.2,0,0,1,.09.2.71.71,0,0,1-.31.55.22.22,0,0,1-.22,0L37.41,47.37Z"/><path class="cls-2" d="M37.41,19.59a.22.22,0,0,1-.07-.18.71.71,0,0,1,.31-.55.21.21,0,0,1,.2,0s14.27,8.22,14.27,8.22a.23.23,0,0,1,.09.21.69.69,0,0,1-.31.54c-.09.05-.17.06-.22,0L37.41,19.6Z"/><polygon class="cls-3" points="39.78 9.46 40.78 9.42 51.99 15.94 45.83 34.72 44.83 34.75 33.62 28.24 39.78 9.46"/><g class="cls-1"><polygon class="cls-4" points="50.99 15.98 39.78 9.46 33.62 28.24 44.83 34.75 50.99 15.98"/><polygon class="cls-5" points="49.86 16.41 40.31 10.86 34.75 27.81 44.3 33.36 49.86 16.41"/><polygon class="cls-6" points="51.99 15.94 40.78 9.42 39.78 9.46 50.99 15.98 51.99 15.94"/><polygon class="cls-6" points="50.99 15.98 44.83 34.75 45.83 34.72 51.99 15.94 50.99 15.98"/></g><polygon class="cls-3" points="39.78 37.65 40.78 37.61 51.99 44.12 45.83 62.9 44.83 62.94 33.62 56.42 39.78 37.65"/><g class="cls-1"><polygon class="cls-4" points="50.99 44.17 39.78 37.65 33.62 56.42 44.83 62.94 50.99 44.17"/><polygon class="cls-5" points="49.86 44.59 40.31 39.04 34.75 55.99 44.3 61.55 49.86 44.59"/><polygon class="cls-6" points="51.99 44.12 40.78 37.61 39.78 37.65 50.99 44.17 51.99 44.12"/><polygon class="cls-6" points="50.99 44.17 44.83 62.94 45.83 62.9 51.99 44.12 50.99 44.17"/></g><path class="cls-2" d="M59.87,72.22c4.24,2.44,4.24,6.4,0,8.85a17,17,0,0,1-15.32,0c-4.23-2.45-4.23-6.41,0-8.85A16.88,16.88,0,0,1,59.87,72.22Z"/><path class="cls-4" d="M59.87,71.13c4.24,2.44,4.24,6.4,0,8.85a17,17,0,0,1-15.32,0c-4.23-2.45-4.23-6.41,0-8.85A16.88,16.88,0,0,1,59.87,71.13Z"/><path class="cls-2" d="M53.7,75.09a.91.91,0,0,1,0,1.72,3.33,3.33,0,0,1-3,0,.91.91,0,0,1,0-1.72A3.26,3.26,0,0,1,53.7,75.09Z"/><path class="cls-7" d="M53.7,74.55a.91.91,0,0,1,0,1.72,3.26,3.26,0,0,1-3,0,.91.91,0,0,1,0-1.72A3.33,3.33,0,0,1,53.7,74.55Z"/><path class="cls-8" d="M53,74.77c.43.25.43.65,0,.91a1.74,1.74,0,0,1-1.57,0c-.44-.26-.44-.66,0-.91A1.74,1.74,0,0,1,53,74.77Z"/><path class="cls-2" d="M53.32.64V75.27a.68.68,0,0,1-.32.41,1.74,1.74,0,0,1-1.57,0,.57.57,0,0,1-.31-.41S51.1.64,51.1.64Z"/><path class="cls-2" d="M53,.19a.48.48,0,0,1,0,.9,1.68,1.68,0,0,1-1.57,0c-.44-.25-.44-.65,0-.9A1.74,1.74,0,0,1,53,.19Z"/><path class="cls-2" d="M52.51,41.91a.26.26,0,0,1-.08-.19.68.68,0,0,1,.32-.54.22.22,0,0,1,.2,0l14.27,8.23a.26.26,0,0,1,.09.21.69.69,0,0,1-.31.54.22.22,0,0,1-.23,0L52.51,41.92Z"/><path class="cls-2" d="M52.51,14.13a.22.22,0,0,1-.08-.18.69.69,0,0,1,.32-.55.24.24,0,0,1,.2,0s14.27,8.23,14.27,8.23a.23.23,0,0,1,.09.2.69.69,0,0,1-.31.54.25.25,0,0,1-.23,0L52.51,14.14Z"/><polygon class="cls-3" points="58.67 33.99 59.68 33.95 70.89 40.46 64.73 59.24 63.73 59.28 52.52 52.76 58.67 33.99"/><g class="cls-1"><polygon class="cls-4" points="69.89 40.51 58.67 33.99 52.52 52.76 63.73 59.28 69.89 40.51"/><polygon class="cls-5" points="68.76 40.93 59.2 35.38 53.64 52.33 63.2 57.89 68.76 40.93"/><polygon class="cls-6" points="70.89 40.46 59.68 33.95 58.67 33.99 69.89 40.51 70.89 40.46"/><polygon class="cls-6" points="69.89 40.51 63.73 59.28 64.73 59.24 70.89 40.46 69.89 40.51"/></g><polygon class="cls-3" points="58.67 5.81 59.68 5.76 70.89 12.28 64.73 31.06 63.73 31.09 52.52 24.58 58.67 5.81"/><g class="cls-1"><polygon class="cls-4" points="69.89 12.32 58.67 5.81 52.52 24.58 63.73 31.09 69.89 12.32"/><polygon class="cls-5" points="68.76 12.75 59.2 7.2 53.64 24.15 63.2 29.7 68.76 12.75"/><polygon class="cls-6" points="70.89 12.28 59.68 5.76 58.67 5.81 69.89 12.32 70.89 12.28"/><polygon class="cls-6" points="69.89 12.32 63.73 31.09 64.73 31.06 70.89 12.28 69.89 12.32"/></g><path class="cls-9" d="M41.43,22l.12,0h.14l.15,0,.81.09.9.31c.33.19.66.38.58.6-.14.37-.43.3-.79.07a2,2,0,0,1-.82-.13,2.45,2.45,0,0,1-.85,0l-.35-.09,0-.2v-.1l0-.25,0-.31Z"/><path class="cls-9" d="M43.58,25.37c-.12.17-.41.14-.72,0a2.07,2.07,0,0,1-.82,0,3,3,0,0,1-1.08.26h-.13v-.94l.66-.07.51-.06.9.12c.36.06.8.28.76.5A.36.36,0,0,1,43.58,25.37Z"/><path class="cls-9" d="M41.43,23l1.23,0,.92.24c.35.16.7.32.63.55s-.39.34-.78.13a2.14,2.14,0,0,1-.83-.06,2.56,2.56,0,0,1-1.2,0Z"/><path class="cls-9" d="M43.85,24.81c-.14.07-.35,0-.6-.13H43a2.06,2.06,0,0,1-.6-.08,2.43,2.43,0,0,1-1.2,0l0-.89,1.23,0,.54.09.22,0,.18,0c.35.14.67.41.61.64A.4.4,0,0,1,43.85,24.81Z"/><path class="cls-9" d="M41.54,22a2.27,2.27,0,0,1,.11.53,3.24,3.24,0,0,1,0,.45,6.51,6.51,0,0,1-.19,1.61,2.65,2.65,0,0,1-.36.88.35.35,0,0,1-.16.14,5,5,0,0,1-2.73.62,1.79,1.79,0,0,1-1-.45l-1.49.09a.85.85,0,0,0,.58-.46,1.55,1.55,0,0,0-.4-2.08l1.29-.23,1.88-.48,2.32-.59Z"/><path class="cls-9" d="M42.92,25.26a.79.79,0,0,1-.77-.1,2.09,2.09,0,0,1-1,.33h-.29s.37-2.13.34-2.14-.57,2.22-.64,2.25a4.06,4.06,0,0,1-1.41.34,2.08,2.08,0,0,1-1.71-.63l-1.07.13a.85.85,0,0,1-.58.46l1.49-.09a1.79,1.79,0,0,0,1,.45A5.07,5.07,0,0,0,41,25.63,3,3,0,0,0,42,25.37a2.07,2.07,0,0,0,.82,0c.31.12.6.15.72,0A.65.65,0,0,1,42.92,25.26Z"/><path class="cls-9" d="M41.69,22.06l-2.58.58c-.14.29-.27.6-.38.9s0,.74-.25.86c.13.06.51-.1.65-.17a.82.82,0,0,0,.37-.41c.14-.27.28-.71.55-.87C40.92,22.42,41.43,23,41.69,22.06Z"/><path class="cls-9" d="M41.39,22.36a1,1,0,0,1-.58.09h-.59l-.52.23a2.59,2.59,0,0,1-1.11,1.83.81.81,0,0,1-.39.07c-.5,0-.85-.65-1.1-1.41,0,0,.4-.42.4-.42l1.39-1.09,1.31-.13a3.23,3.23,0,0,0,1.24.2c.18,0,.26.1.27.21a.5.5,0,0,1,0,.12A.67.67,0,0,1,41.39,22.36Z"/><path class="cls-9" d="M41.43,22l.12,0h.14l.15,0,.81.09.9.31c.33.19.66.38.58.6-.14.37-.43.3-.79.07a2,2,0,0,1-.82-.13,2.45,2.45,0,0,1-.85,0l-.35-.09,0-.2v-.1l0-.25,0-.31Z"/><path class="cls-9" d="M43.58,25.37c-.12.17-.41.14-.72,0a2.07,2.07,0,0,1-.82,0,3,3,0,0,1-1.08.26h-.13v-.94l.66-.07.51-.06.9.12c.36.06.8.28.76.5A.36.36,0,0,1,43.58,25.37Z"/><path class="cls-9" d="M41.43,23l1.23,0,.92.24c.35.16.7.32.63.55s-.39.34-.78.13a2.14,2.14,0,0,1-.83-.06,2.56,2.56,0,0,1-1.2,0Z"/><path class="cls-9" d="M43.85,24.81c-.14.07-.35,0-.6-.13H43a2.06,2.06,0,0,1-.6-.08,2.43,2.43,0,0,1-1.2,0l0-.89,1.23,0,.54.09.22,0,.18,0c.35.14.67.41.61.64A.4.4,0,0,1,43.85,24.81Z"/><path class="cls-9" d="M41.54,22a2.27,2.27,0,0,1,.11.53,3.24,3.24,0,0,1,0,.45,6.51,6.51,0,0,1-.19,1.61,2.65,2.65,0,0,1-.36.88.35.35,0,0,1-.16.14,5,5,0,0,1-2.73.62,1.79,1.79,0,0,1-1-.45l-1.49.09a.85.85,0,0,0,.58-.46,1.55,1.55,0,0,0-.4-2.08l1.29-.23,1.88-.48,2.32-.59Z"/><path class="cls-10" d="M42.92,25.26a.79.79,0,0,1-.77-.1,2.09,2.09,0,0,1-1,.33h-.29s.37-2.13.34-2.14-.57,2.22-.64,2.25a4.06,4.06,0,0,1-1.41.34,2.08,2.08,0,0,1-1.71-.63l-1.07.13a.85.85,0,0,1-.58.46l1.49-.09a1.79,1.79,0,0,0,1,.45A5.07,5.07,0,0,0,41,25.63,3,3,0,0,0,42,25.37a2.07,2.07,0,0,0,.82,0c.31.12.6.15.72,0A.65.65,0,0,1,42.92,25.26Z"/><path class="cls-10" d="M41.69,22.06l-2.58.58c-.14.29-.27.6-.38.9s0,.74-.25.86c.13.06.51-.1.65-.17a.82.82,0,0,0,.37-.41c.14-.27.28-.71.55-.87C40.92,22.42,41.43,23,41.69,22.06Z"/><path class="cls-9" d="M41.39,22.36a1,1,0,0,1-.58.09h-.59l-.52.23a2.59,2.59,0,0,1-1.11,1.83.81.81,0,0,1-.39.07c-.5,0-.85-.65-1.1-1.41,0,0,.4-.42.4-.42l1.39-1.09,1.31-.13a3.23,3.23,0,0,0,1.24.2c.18,0,.26.1.27.21a.5.5,0,0,1,0,.12A.67.67,0,0,1,41.39,22.36Z"/><path class="cls-4" d="M7.43,92.35c2.63-.17,2.05-4.62,1.34-7a1.71,1.71,0,0,0-2.18-1c-.86.28-1.4,1.93-1.37,2.84S4.33,92.54,7.43,92.35Z"/><path class="cls-9" d="M8.87,87.71c.44-3.75-3.66-4.07-3.11,0,.15,1.09.83,1.88,1.52,1.91C8.36,89.7,8.78,88.5,8.87,87.71Z"/><path class="cls-9" d="M21.05,86.23a6.21,6.21,0,0,0,4,1.37.73.73,0,0,0,.54-.19c.2-.24.06-.6-.1-.87-1.33-2.15-3.81-4-4.9-6.29a2.11,2.11,0,0,0-.46-.73c-.34-.27-.82-.21-1.24-.32s-.8-.35-1.15-.15-.39.61-.48,1-.29,1.36-.41,1.75A2,2,0,0,0,16.79,83a1.87,1.87,0,0,0,1,1.06c.43.24.9.38,1.32.61A15.06,15.06,0,0,1,21.05,86.23Z"/><path class="cls-4" d="M25.62,87.41a.67.67,0,0,1-.54.18,6.13,6.13,0,0,1-4-1.36,15.06,15.06,0,0,0-2-1.61c-.43-.23-.9-.38-1.32-.6a1.89,1.89,0,0,1-1-1.07,2,2,0,0,1,.08-1.19c.11-.33.26-1.25.36-1.59a.66.66,0,0,0,.05-.15c.1-.36.17-.8.49-1s.76,0,1.15.15.9,0,1.24.32a2.11,2.11,0,0,1,.46.73,8.38,8.38,0,0,0,1.79,2.35,22.56,22.56,0,0,1,3.11,4C25.68,86.81,25.82,87.17,25.62,87.41Z"/><path class="cls-9" d="M23.18,83.85a.4.4,0,0,1-.15.39.72.72,0,0,1-.36.06,6.42,6.42,0,0,1-3.39-1.68,8.5,8.5,0,0,1-1.42-1.39,4.94,4.94,0,0,1-.63-1.06.66.66,0,0,0,.05-.15c.1-.36.11-1.12.44-1.3s.81,0,1.2.11,1-.13,1.39.15.12.79.25,1a9.62,9.62,0,0,0,1.85,2.57c.22.3.42.58.59.86A1,1,0,0,1,23.18,83.85Z"/><path class="cls-9" d="M22,57.82c0,.59-.08,1.26-.13,2s-.1,1.47-.15,2.29c0,.65-.08,1.33-.12,2-.45,7-1,15.86-1,15.88l0,0c-.64,1.19-3,1.45-3.26,0A116.2,116.2,0,0,0,15.62,67.6c-.2-1.27-.37-2.49-.47-3.7a25.7,25.7,0,0,1-.13-3v-.14a19.49,19.49,0,0,1,.22-2.55c0-.26.09-.5.14-.75l5.42-3.52C20.8,54.07,22,57.66,22,57.82Z"/><path class="cls-9" d="M15.62,50.06c-.9,4.6-1.41,8.25-2,11l-.12.62a22.13,22.13,0,0,1-.74,2.81c-.06.18-.12.36-.18.52l-.45,2.15-.2.94L8.49,84.8l-.12.59-.12.54c0,1.31-2,.87-2.12-.24l0-.25c0-.25-.06-.49-.08-.73-1.08-10.07-.78-14.12-.1-17.93.08-.48.17-1,.27-1.46.14-.71.29-1.43.43-2.2,0-.24-.06-.49-.08-.74a1.23,1.23,0,0,1,0-.19s0-.07,0-.11a70.51,70.51,0,0,1-.3-12Z"/><path class="cls-9" d="M15.62,50.06c-.9,4.6-1.41,8.25-2,11l-.12.62a22.13,22.13,0,0,1-.74,2.81c-.06.18-.12.36-.18.52l-.45,2.15-.2.94L8.49,84.8l-.12.59-.12.54c0,1.31-2,.87-2.12-.24l0-.25c0-.25-.06-.49-.08-.73-1.08-10.07-.78-14.12-.1-17.93.08-.48.17-1,.27-1.46.14-.71.29-1.43.43-2.2,0-.24-.06-.49-.08-.74a1.23,1.23,0,0,1,0-.19s0-.07,0-.11a70.51,70.51,0,0,1-.3-12Z"/><path class="cls-11" d="M13.66,61.09l-.12.62a22.13,22.13,0,0,1-.74,2.81c-.06.18-.12.36-.18.52l-.45,2.15-.2.94a13,13,0,0,1-6.05-1.35c.08-.48.17-1,.27-1.46.14-.71.29-1.43.43-2.2,0-.24-.06-.49-.08-.74a1.23,1.23,0,0,1,0-.19Z"/><path class="cls-11" d="M21.85,59.83c0,.71-.1,1.47-.15,2.29,0,.65-.08,1.33-.12,2a12.54,12.54,0,0,1-6,3.45c-.2-1.27-.37-2.49-.47-3.7a25.7,25.7,0,0,1-.13-3Z"/><path class="cls-12" d="M21.73,61.68c-.82,2.24-11.94,6.72-15.46,3.24l-1-15.37c-1-5-.12-7.64,2.5-10.08.31-.3.65-.58,1-.88l7.81-.31,3.06-.13A61.57,61.57,0,0,1,21.73,61.68Z"/><path class="cls-13" d="M19.63,38.15c-.75,1.79-1.74,3.17-3.71,3.67a9.23,9.23,0,0,1-8.18-2.35c-2.62,2.44-3.46,5-2.5,10.08l1,15.37a4.77,4.77,0,0,0,1.72,1c-.72-5.36.1-17.72,1.24-21.93,6.47.25,9.2-1.27,10.71-4.83Z"/><path class="cls-14" d="M36.91,23.07c1.63.15,1.37,2.73.33,3-.6.15-7.51,3.05-12.41,1.12l-6.4-3.34-2.52.41.89-7.78c2.75,1.36,5.48,3.36,11,7.19Z"/><path class="cls-4" d="M22.91,30.35a2.9,2.9,0,0,1-3.36,2.76c0,.16,0,.28,0,.39-.05,1-.22,2.13-.2,3.17a3,3,0,0,0,0,.31,5.27,5.27,0,0,0,.1.81c0,.12.06.24.1.37-.76,1.81-1.77,3.22-3.78,3.73a7.1,7.1,0,0,1-1.82.18,9.18,9.18,0,0,1-6.51-2.58c.38-2.82-.57-6.43-1.57-9.47-.76-2.34-1.56-4.33-1.77-5.34a30,30,0,0,1,6.41-5.87c2.36-1.64,3.44-3.73,6.13-2.72s3,6.36,4,8.48S22.91,28.15,22.91,30.35Z"/><path class="cls-15" d="M19.45,37.79c0,.12.06.24.1.37-1,2.92-2.92,4.25-5.6,3.91a9.18,9.18,0,0,1-6.51-2.58c.38-2.82-.57-6.43-1.57-9.47l2.44-.61L11,33.63c2.06,3.47,7.4,2.79,7.62-.75l1,.27c0,.12,0,.24,0,.35,0,1.4-.19,2.34-.2,3.17a3,3,0,0,0,0,.31A3.15,3.15,0,0,0,19.45,37.79Z"/><path class="cls-14" d="M4.08,24.71a31,31,0,0,0-3.85,13C-.39,41.25.28,47.64,1.87,51a2.31,2.31,0,0,1,2.21-.58c.26-4.69.58-9.25,0-11.69L7.63,31C10.06,25.68,6.08,22.18,4.08,24.71Z"/><path class="cls-9" d="M8.39,54.1a.64.64,0,0,1-.75-.1c-.59-.62-1.21-1.11-2-.83a1.4,1.4,0,0,0-.07,1l0,.09A15.45,15.45,0,0,0,7,57.41a.34.34,0,0,1-.08.41.48.48,0,0,1-.55,0c0,.32-.38.44-.66.15l-.41-.45c0,.37-.48.26-.61,0l-.78-1a7.09,7.09,0,0,1-1.34-1.82l-.16-.3A10.76,10.76,0,0,1,1.87,51c.26-1,1.11-1.09,2.21-.57l1.31.68c1.23.6,1.85,1.46,3.16,2.52C8.66,53.8,8.57,54,8.39,54.1Z"/><path class="cls-9" d="M6.91,57.82a.48.48,0,0,1-.55,0c0,.32-.38.44-.66.15l-.41-.45c0,.37-.48.26-.61,0l-.78-1a7.09,7.09,0,0,1-1.34-1.82,2.29,2.29,0,0,0,2-.27C5.09,55.8,6.11,57.58,6.91,57.82Z"/><path class="cls-9" d="M8.39,54.1a.64.64,0,0,1-.75-.1c-.59-.62-1.21-1.11-2-.83a1.4,1.4,0,0,0-.07,1l-.33-1.4C6.69,52.44,7.7,53.82,8.39,54.1Z"/><path class="cls-16" d="M21.23,32.91a4.27,4.27,0,0,0,1.11-.78A2.71,2.71,0,0,1,21.23,32.91Z"/><polygon class="cls-9" points="15.15 19.31 15.68 21.69 17.77 31.14 10.54 20.98 15.15 19.31"/><polygon class="cls-14" points="14.88 18.83 17.73 30.97 16.94 19.16 14.88 18.83"/><path class="cls-17" d="M12.37,15.72a3.28,3.28,0,1,1-3.28-3.28A3.28,3.28,0,0,1,12.37,15.72Z"/><path class="cls-9" d="M10.81,15.37c-.35,1.23-.26,2.46-.71,3.73C9.83,20.54,12.17,22,14,21.9c1.26-.25,1.15-.85,1.34-2.34Z"/><path class="cls-11" d="M11.59,15.92c0,4.18,1.58,7.92,3.53,7.21.76-.28.82-2.44.83-5.31Z"/><path class="cls-9" d="M11.23,17.33c1.26,1.58,2.62,2.92,4.84,2.6.82-.12,1.58-1.35,1.52-6.27a8.34,8.34,0,0,0-1.68-4.55,4.74,4.74,0,0,0-4.72-1.4,4.23,4.23,0,0,0-3.44,5C8.33,16,9.76,17.23,11.23,17.33Z"/><path class="cls-18" d="M10.39,17a2,2,0,0,0,1.07-.91,6.21,6.21,0,0,0,.67-2.72c2.3-.24,4.73-1.92,4.73-2.69-.11-1.07-.76-2-2.72-2.82A4.87,4.87,0,0,0,8.47,9.27C6,11.91,8.23,16.58,10.3,17.42Z"/><path class="cls-17" d="M17.9,12.86c-.2-.54-.65.24-1.24.82a.84.84,0,0,0-.19.39.81.81,0,0,0-.47.36c-.06-.1-.31,0-.41,0-.78.47-1.78.65-1.78,1.31,0,1.57,2.68,1,2.27-1.14a.53.53,0,0,1,.37-.33v0c.16,1.14.89.92,1.32.19A2.22,2.22,0,0,0,17.9,12.86Zm-2.08,3a1.37,1.37,0,0,1-.76.62.92.92,0,0,1-.88-.12.75.75,0,0,1-.25-.61c0-.32.36-.51.94-.78.26-.12.51-.26.77-.4s.29,0,.32.11A1.72,1.72,0,0,1,15.82,15.87Zm1.89-1.46a1.18,1.18,0,0,1-.58.59c-.38.12-.55-.37-.56-.81a.57.57,0,0,1,.16-.41c.16-.15.3-.31.45-.47s.34-.41.48-.46.1,0,.13.09A2,2,0,0,1,17.71,14.41Z"/><polygon class="cls-17" points="13.89 15.84 10.37 15.92 10.28 15.75 13.95 15.53 13.89 15.84"/><path class="cls-9" d="M10.92,16.4a2.77,2.77,0,0,0-.56-.67,1.13,1.13,0,0,0-.8-.29.51.51,0,0,0-.22.06.54.54,0,0,0-.25.45,1.16,1.16,0,0,0,.12.51,2.51,2.51,0,0,0,.57.83,1.46,1.46,0,0,0,.91.38.54.54,0,0,0,.37-.11.47.47,0,0,0,.14-.27A1.35,1.35,0,0,0,10.92,16.4Z"/><polygon class="cls-14" points="10.15 18.83 18.66 32.45 9.88 23.87 10.31 22.13 8.89 21.37 8.88 20.01 10.15 18.83"/></g></g></g></svg>