<svg xmlns="http://www.w3.org/2000/svg" viewBox="0 0 277.83 273.42"><defs><style>.cls-1{isolation:isolate;}.cls-2,.cls-21{fill:#9e2e3b;}.cls-3{fill:#dce1cb;}.cls-4{fill:#60c1d2;}.cls-5{fill:#fff;}.cls-6{fill:#d6eeeb;}.cls-7{fill:#878787;}.cls-8{fill:#f2f2f2;}.cls-12,.cls-9{fill:#3c3c3b;}.cls-10,.cls-13{fill:#1d1d1b;}.cls-11{fill:#575756;}.cls-12,.cls-13,.cls-17,.cls-21,.cls-22{mix-blend-mode:multiply;}.cls-14{fill:#0b1017;}.cls-15{fill:#603480;}.cls-16,.cls-17{fill:#924fc2;}.cls-17,.cls-21,.cls-22{opacity:0.5;}.cls-18{fill:#991f24;}.cls-19,.cls-22{fill:#ffae80;}.cls-20{fill:#ff4555;}.cls-23{fill:#ff612e;}.cls-24{fill:#eda96b;}.cls-25{fill:#fcaf75;}</style></defs><g class="cls-1"><g id="Layer_2" data-name="Layer 2"><g id="Layer_1-2" data-name="Layer 1"><g class="cls-1"><polygon class="cls-2" points="0 208.41 0.06 218.37 94.78 273.42 94.72 263.45 0 208.41"/><polygon class="cls-2" points="94.72 263.45 94.78 273.42 277.83 167.73 277.77 157.77 94.72 263.45"/><polygon class="cls-3" points="0 208.41 94.72 263.45 277.77 157.77 183.05 102.72 0 208.41"/></g><polygon class="cls-4" points="159.14 148.08 159.14 150.11 161.94 148.49 161.94 146.46 159.14 148.08"/><polygon class="cls-5" points="143.52 139.06 159.14 148.08 161.94 146.46 146.32 137.44 143.52 139.06"/><polygon class="cls-4" points="159.14 148.08 159.14 150.11 143.52 141.09 143.52 139.06 159.14 148.08"/><polygon class="cls-6" points="69.14 119.26 67.39 118.24 70.19 116.63 71.95 117.64 69.14 119.26"/><polygon class="cls-4" points="69.14 137.29 69.14 119.26 71.95 117.64 71.95 135.68 69.14 137.29"/><polygon class="cls-7" points="69.14 119.26 67.39 118.24 67.39 136.28 69.14 137.29 69.14 119.26"/><polygon class="cls-6" points="150.1 72.52 148.34 71.5 151.15 69.89 152.9 70.9 150.1 72.52"/><polygon class="cls-4" points="150.1 90.56 150.1 72.52 152.9 70.9 152.9 88.94 150.1 90.56"/><polygon class="cls-6" points="150.1 72.52 148.34 71.5 148.34 89.54 150.1 90.56 150.1 72.52"/><polygon class="cls-4" points="75.94 196.15 75.94 198.18 78.74 196.56 78.74 194.53 75.94 196.15"/><polygon class="cls-5" points="60.32 187.13 75.94 196.15 78.74 194.53 63.12 185.51 60.32 187.13"/><polygon class="cls-4" points="75.94 196.15 75.94 198.18 60.32 189.16 60.32 187.13 75.94 196.15"/><polygon class="cls-8" points="63.19 126.68 63.19 192.54 157.74 137.95 157.74 72.08 63.19 126.68"/><polygon class="cls-4" points="64.43 191.87 64.43 195.89 158.99 141.29 158.99 137.28 64.43 191.87"/><polygon class="cls-6" points="63.27 191.2 64.43 191.87 158.99 137.28 157.83 136.6 63.27 191.2"/><polygon class="cls-6" points="64.43 191.87 64.43 195.89 63.27 195.22 63.27 191.2 64.43 191.87"/><polygon class="cls-4" points="64.43 125.11 64.43 127.45 158.99 72.86 158.99 70.52 64.43 125.11"/><polygon class="cls-6" points="63.27 124.44 64.43 125.11 158.99 70.52 157.83 69.84 63.27 124.44"/><polygon class="cls-7" points="64.43 125.11 64.43 127.45 63.27 126.78 63.27 124.44 64.43 125.11"/><path class="cls-6" d="M51.86,92.25l.38,133.89,1.27.74,2-1.17,5-9.06,0,4.69,1.27.74,1.71-1L63.19,98.71,201.65,18.76,202,139.68l1.27.74,1.71-1,0-7.62,5,3.26,1.27.74,2-1.18L212.91.74,211.64,0Zm3,1.71,2.37-1.36-2.36,3.91ZM204.63,17.05l3.81-2.21-3.8,6.89Zm.57,91.61,5-9,0,12.3Zm0-20.4,5-9.05,0,12.3Zm-.06-20.4,5-9,0,12.31ZM205,47.46l5-9.05,0,12.31ZM205,27.06l5-9,0,12.31ZM206.3,6.52l3.63-2.09v3.9Zm4,125.79-5-3.26,5-9.05Zm-5.36-8.59,0-12.31,5,3.26Zm-.06-20.4,0-12.31,5,3.26Zm-.05-20.4,0-12.3,5,3.25Zm-.06-20.39,0-12.31,5,3.26Zm-.06-20.4,0-12.31,5,3.26Zm4.69-31.27L198.71,17,204,8.19Zm-15.48,8.58-5.37-2.67,10.69-6.17Zm-2.27,1.66L181,27.28l5.33-8.84Zm-15.49,8.59L170.8,27l10.68-6.17Zm-2.26,1.66L163.2,37.52l5.33-8.83Zm-15.48,8.58-5.36-2.66,10.68-6.17Zm-2.27,1.67-10.69,6.17,5.33-8.83Zm-15.49,8.58-5.36-2.66L146,41.35Zm-2.26,1.67L127.7,58,133,49.19ZM122.9,60.43l-5.36-2.66,10.69-6.17Zm-2.27,1.67L110,68.27l5.33-8.83Zm-15.48,8.58L99.79,68l10.69-6.17Zm-2.27,1.67L92.2,78.52l5.33-8.84ZM87.4,80.93,82,78.26,92.72,72.1ZM85.13,82.6,74.44,88.77l5.33-8.84ZM69.65,91.17l-5.36-2.66L75,82.34Zm-2.27,1.68L56.69,99,62,90.18ZM55.49,205.31l5-9.05,0,4.69,0,7.62Zm-.06-20.4,5-9v4.69l0,7.62Zm-.06-20.4,5-9v4.69l0,7.62Zm-.06-20.39,5-9.05v4.68l0,7.62Zm-.05-20.4,5-9,0,4.69,0,7.61Zm-.06-20.4,5-2.9,0,6.16Zm5,108-5,9,0-12.31ZM55.15,200l0-12.31,5,3.26Zm-.06-20.4,0-12.31,5,3.27ZM55,159.19l0-12.32,5,3.27ZM55,138.79l0-12.31,5,3.26Zm-.06-20.4,0-12.31,5,3.26Z"/><path class="cls-4" d="M213.29,134.63l-2,1.18L205,131.72l0,7.71-1.71,1L202.92,18,63.19,98.71l.35,122.38-1.71,1,0-7.71-6.26,11.34-2,1.17L53.13,93,212.91.74ZM55,162.21l6.26-11.34L55,146.79l0,15.42ZM211.35,56.52l-6.26,11.34,6.3,4.08,0-15.42Zm-142.6,37L62,90.18l-6.69,11.1,13.42-7.75Zm88.76-51.25-6.73-3.34L144.09,50l13.42-7.75ZM55,141.81l6.26-11.34-6.3-4.08,0,15.42Zm58.13-81.48L99.69,68.07l6.73,3.35,6.69-11.09Zm91.83,66.41,6.26-11.33-6.3-4.09,0,15.42Zm6.35-90.62L205,47.46l6.3,4.08,0-15.42Zm-6.41,70.23L211.14,95l-6.3-4.09,0,15.43ZM193,21.78l-6.73-3.34-6.69,11.09L193,21.78ZM175.26,32l-6.73-3.34-6.69,11.09L175.26,32Zm26.6-23-13.42,7.75,6.73,3.34,6.69-11.09Zm-71,41-13.42,7.75,6.73,3.34,6.69-11.09ZM86.5,83.28l-6.73-3.35L73.08,91,86.5,83.28ZM61.77,201.69l0-7.72-6.26,11.34,6.3,4.08,0-7.7Zm-6.34-16.78,6.3,4.08,0-7.7,0-7.72-6.26,11.34ZM104.25,73l-6.72-3.35-6.69,11.1L104.25,73Zm79.86-53.7L170.7,27.08l6.72,3.34,6.69-11.09Zm27.12-3.6L205,27.06l6.31,4.08-.05-15.41ZM54.93,121.41l6.26-11.34L54.88,106l0,15.41ZM211.4,76.92l-6.25,11.34,6.3,4.07,0-15.41Zm-6.58,9,6.26-11.34-6.3-4.08,0,15.42Zm0-20.4L211,54.22l-6.31-4.09.05,15.42ZM55.22,223.4l6.25-11.34L55.17,208l0,15.41ZM211.46,97.32l-6.26,11.34,6.31,4.07,0-15.41ZM55.1,182.6l6.26-11.33-6.3-4.08,0,15.41Zm156.46-49.47,0-15.41-6.26,11.33,6.3,4.08ZM55.16,203l6.26-11.33-6.31-4.08,0,15.41ZM166.36,29.58,153,37.33l6.73,3.34,6.68-11.09Zm44.4-18L204,8.19l-6.69,11.09,13.41-7.74ZM148.61,39.83l-13.42,7.75,6.73,3.34,6.69-11.09Zm-8.86,12.7L133,49.19l-6.68,11.09,13.41-7.75Zm-44.4,18L81.94,78.32l6.73,3.35,6.68-11.09ZM122,62.78l-6.72-3.34-6.69,11.09L122,62.78Zm-44.4,18L64.19,88.57l6.73,3.34L77.6,80.83ZM204.71,45.15,211,33.82l-6.3-4.09,0,15.42Zm-149.4,99,6.31,4.07,0-7.7,0-7.71-6.26,11.34Zm.06,20.39,6.3,4.08,0-7.7,0-7.71-6.26,11.33Zm-.11-40.79,6.3,4.07,0-7.7,0-7.71-6.25,11.34Zm-.06-20.4,6.3,4.08,0-7.71-6.28,3.63ZM204.65,24.76l6.25-11.34-6.27,3.63,0,7.71ZM211.2,3.69l-5,2.89,5,2.49V3.69ZM54.86,99.34l5-8.26-5,2.88v5.38Z"/><path class="cls-6" d="M60.23,97.08,60.61,231l1.27.74,2-1.17,5-9.06v4.69l1.27.74,1.71-1-.35-122.38L210,23.59l.34,120.92,1.27.74,1.71-1,0-7.62,5,3.26,1.27.74,2-1.18L221.27,5.57,220,4.83Zm3,1.71,2.37-1.37-2.36,3.92ZM213,21.87l3.82-2.2L213,26.56Zm.58,91.62,5-9.06,0,12.31Zm-.06-20.4,5-9.06,0,12.31Zm-.06-20.4,5-9,0,12.31Zm-.06-20.4,5-9,0,12.31Zm0-20.4,5-9,0,12.31Zm1.32-20.54,3.64-2.1v3.91Zm4,125.79-5-3.26,5-9Zm-5.36-8.59,0-12.31,5,3.26Zm-.06-20.4,0-12.31,5,3.26Zm-.06-20.4,0-12.3,5,3.25Zm-.06-20.4,0-12.3,5,3.26ZM213.06,47l0-12.31,5,3.26Zm4.69-31.27-10.68,6.16L212.4,13Zm-15.48,8.58-5.36-2.67,10.69-6.17ZM200,25.93,189.32,32.1l5.33-8.83Zm-15.49,8.58-5.36-2.66,10.68-6.17Zm-2.27,1.67-10.68,6.17,5.32-8.83Zm-15.48,8.58-5.36-2.66,10.68-6.17Zm-2.27,1.67L153.81,52.6l5.33-8.83ZM149,55l-5.36-2.66,10.68-6.17Zm-2.27,1.67-10.68,6.17L141.39,54Zm-15.49,8.58L125.9,62.6l10.69-6.17ZM129,66.93,118.31,73.1l5.33-8.84Zm-15.49,8.58-5.36-2.66,10.69-6.18Zm-2.27,1.67-10.68,6.17,5.33-8.84ZM95.76,85.76,90.4,83.09l10.69-6.17ZM93.5,87.43,82.81,93.6l5.33-8.84ZM78,96l-5.36-2.66,10.69-6.17Zm-2.27,1.68-10.68,6.17L70.38,95ZM63.85,210.14l5-9v4.69l0,7.62Zm-.06-20.4,5-9.05v4.69l0,7.62Zm0-20.4,5-9.05,0,4.69,0,7.62ZM63.68,149l5-9v4.68l0,7.62Zm-.06-20.4,5-9.05v4.68l0,7.62Zm-.06-20.4,5-2.9v6.16Zm5,108-5,9.06,0-12.31Zm-5.06-11.34,0-12.31,5,3.26Zm0-20.4,0-12.31,5,3.26ZM63.4,164l0-12.32,5,3.26Zm-.06-20.4,0-12.32,5,3.27Zm-.06-20.4,0-12.31,5,3.26Z"/><path class="cls-4" d="M221.65,139.46l-2,1.18-6.3-4.09,0,7.71-1.71,1-.35-122.39L71.55,103.54l.35,122.38-1.71,1,0-7.71L63.9,230.54l-2,1.17L61.5,97.81,221.27,5.57ZM63.41,167l6.25-11.34-6.3-4.08,0,15.42ZM219.71,61.35l-6.26,11.34,6.3,4.08,0-15.42Zm-142.6,37L70.38,95,63.69,106.1l13.42-7.74Zm88.76-51.25-6.73-3.34-6.69,11.09,13.42-7.75ZM63.35,146.64l6.26-11.34-6.31-4.08.05,15.42Zm58.12-81.48L108.05,72.9l6.73,3.35,6.69-11.09Zm91.83,66.41,6.26-11.33-6.3-4.09,0,15.42ZM219.65,41l-6.26,11.34,6.31,4.08,0-15.42Zm-6.4,70.22,6.25-11.33-6.3-4.09.05,15.42ZM201.38,26.61l-6.73-3.34L188,34.36l13.42-7.75ZM183.62,36.86l-6.73-3.34L170.2,44.61l13.42-7.75Zm26.61-22.95-13.42,7.75L203.54,25l6.69-11.09Zm-71,41L125.8,62.65,132.53,66l6.69-11.09ZM94.87,88.11l-6.73-3.35L81.45,95.85l13.42-7.74ZM70.13,206.52l0-7.72-6.26,11.34,6.3,4.08,0-7.7Zm-6.34-16.78,6.31,4.08,0-7.7,0-7.72-6.26,11.34ZM112.61,77.86l-6.72-3.35L99.2,85.6l13.41-7.74Zm79.87-53.7-13.42,7.75,6.73,3.34,6.69-11.09Zm27.12-3.6-6.26,11.33,6.3,4.08,0-15.41ZM63.29,126.24l6.26-11.34-6.3-4.07,0,15.41ZM219.77,81.75l-6.26,11.34,6.3,4.07,0-15.41Zm-6.58,9,6.26-11.33-6.31-4.08.05,15.41Zm-.06-20.39,6.26-11.33L213.09,55l0,15.42ZM63.58,228.23l6.26-11.34-6.3-4.07,0,15.41ZM219.83,102.15l-6.26,11.34,6.3,4.07,0-15.41ZM63.46,187.43l6.26-11.33L63.42,172l0,15.41ZM219.93,138l-.05-15.41-6.25,11.33,6.3,4.08ZM63.52,207.83l6.26-11.33-6.3-4.08,0,15.41ZM174.72,34.41l-13.41,7.74L168,45.5l6.68-11.09Zm44.4-18L212.4,13l-6.69,11.09,13.41-7.74ZM157,44.66,143.56,52.4l6.73,3.35L157,44.66Zm-8.85,12.7L141.39,54l-6.68,11.09,13.41-7.75Zm-44.4,18L90.31,83.15,97,86.5l6.69-11.09Zm26.65-7.8-6.73-3.35L117,75.36l13.42-7.75ZM86,85.66,72.55,93.4l6.73,3.34L86,85.66ZM213.07,50l6.26-11.33L213,34.56l0,15.42ZM63.68,149,70,153l0-7.7,0-7.71L63.68,149Zm.06,20.39,6.3,4.08,0-7.7L70,158l-6.25,11.33Zm-.12-40.79,6.3,4.07,0-7.7,0-7.71-6.26,11.34Zm-.06-20.4,6.3,4.08,0-7.71-6.28,3.63ZM213,29.59l6.26-11.34L213,21.87l0,7.72Zm6.55-21.07-5,2.89,5,2.49,0-5.38ZM63.23,104.17l5-8.27-5,2.89,0,5.38Z"/><polygon class="cls-6" points="210.25 0.8 219.88 6.37 221.27 5.57 211.64 0 210.25 0.8"/><polygon class="cls-6" points="192.65 10.96 202.28 16.53 203.68 15.72 194.04 10.16 192.65 10.96"/><polygon class="cls-6" points="175.05 21.12 184.69 26.68 186.08 25.88 176.44 20.32 175.05 21.12"/><polygon class="cls-6" points="157.45 31.27 167.09 36.84 168.48 36.04 158.84 30.47 157.45 31.27"/><polygon class="cls-6" points="139.86 41.43 149.49 47 150.88 46.2 141.25 40.63 139.86 41.43"/><polygon class="cls-6" points="122.26 51.59 131.89 57.16 133.28 56.35 123.65 50.79 122.26 51.59"/><polygon class="cls-6" points="104.66 61.75 114.29 67.31 115.68 66.51 106.05 60.95 104.66 61.75"/><polygon class="cls-6" points="87.06 71.91 96.69 77.47 98.08 76.67 88.45 71.1 87.06 71.91"/><polygon class="cls-6" points="69.46 82.06 79.1 87.63 80.48 86.83 70.85 81.26 69.46 82.06"/><polygon class="cls-6" points="51.86 92.22 61.5 97.79 62.89 96.98 53.25 91.42 51.86 92.22"/><polygon class="cls-6" points="51.86 92.22 61.5 97.79 61.5 99.39 51.86 93.82 51.86 92.22"/><polygon class="cls-6" points="51.91 111.12 61.55 116.69 61.55 118.29 51.91 112.73 51.91 111.12"/><polygon class="cls-6" points="51.97 130.03 61.6 135.59 61.6 137.2 51.97 131.63 51.97 130.03"/><polygon class="cls-6" points="52.02 148.93 61.65 154.5 61.65 156.1 52.02 150.53 52.02 148.93"/><polygon class="cls-6" points="52.07 167.83 61.7 173.4 61.7 175 52.07 169.44 52.07 167.83"/><polygon class="cls-6" points="52.12 186.73 61.75 192.3 61.75 193.9 52.12 188.34 52.12 186.73"/><polygon class="cls-6" points="52.17 205.64 61.8 211.2 61.8 212.81 52.17 207.24 52.17 205.64"/><polygon class="cls-6" points="204.59 26.73 211.29 30.6 211.29 32.2 203.2 27.53 204.59 26.73"/><polygon class="cls-6" points="201.71 43.94 211.34 49.5 211.34 51.11 201.71 45.54 201.71 43.94"/><polygon class="cls-6" points="201.76 62.84 211.4 68.41 211.4 70.01 201.76 64.44 201.76 62.84"/><polygon class="cls-6" points="201.81 81.74 211.45 87.31 211.45 88.91 201.81 83.34 201.81 81.74"/><polygon class="cls-6" points="201.86 100.64 211.5 106.21 211.5 107.81 201.86 102.25 201.86 100.64"/><polygon class="cls-6" points="201.91 119.55 211.55 125.11 211.55 126.72 201.91 121.15 201.91 119.55"/><path class="cls-9" d="M208.11,44.73,206.9,42a.89.89,0,0,1,.19-1l7.27-7.24a.67.67,0,0,1,.82-.1l4.36,2.46a1,1,0,0,1,.38.44l1.49,3.84a.63.63,0,0,1-.14.69L214,48.44a.74.74,0,0,1-.9.11l-2-1.22Z"/><path class="cls-10" d="M210.66,44.56c-1.19-1.21-2.49-1.85-2.92-1.44l-.73.67.37.37a5.87,5.87,0,0,0,1.45,2.17,6,6,0,0,0,2.11,1.49l.37.37.73-.67C212.47,47.1,211.85,45.78,210.66,44.56Z"/><path class="cls-10" d="M209.93,45.23c1.19,1.22,1.81,2.54,1.38,3s-1.73-.23-2.92-1.45-1.81-2.53-1.38-3S208.74,44,209.93,45.23Z"/><path class="cls-11" d="M210.11,45.13c-1.39-1.41-2.91-2.17-3.41-1.69l-.84.79.42.43a8.21,8.21,0,0,0,4.16,4.26l.42.44.85-.79C212.21,48.08,211.49,46.54,210.11,45.13Z"/><path class="cls-10" d="M209.26,45.91c1.38,1.42,2.1,3,1.61,3.44s-2-.27-3.41-1.68-2.1-3-1.61-3.44S207.87,44.5,209.26,45.91Z"/><path class="cls-9" d="M202.4,44.73a5.72,5.72,0,0,1,7.34,1.38,5.55,5.55,0,0,1,.61,7Z"/><path class="cls-11" d="M207.51,47.7c2.45,2.5,3.72,5.22,2.85,6.08s-3.57-.47-6-3-3.72-5.22-2.84-6.08S205.07,45.2,207.51,47.7Z"/><polygon class="cls-11" points="201.51 44.73 200.61 45.58 209.46 54.64 210.35 53.79 201.51 44.73"/><path class="cls-10" d="M206.62,48.56c2.45,2.5,3.72,5.22,2.84,6.07s-3.57-.47-6-3-3.72-5.21-2.85-6.07S204.17,46.06,206.62,48.56Z"/><path class="cls-12" d="M212.83,44.88l.93,2.44a.36.36,0,0,0,.59.13L220.74,41a.53.53,0,0,0,.11-.56l-1-2.64a.28.28,0,0,0-.45-.11L213,44.16A.69.69,0,0,0,212.83,44.88Z"/><path class="cls-5" d="M206.09,49.08c2,2,3.1,4.11,2.52,4.68s-2.65-.6-4.63-2.62-3.11-4.11-2.53-4.68S204.11,47.06,206.09,49.08Z"/><path class="cls-13" d="M68.82,129.28a2.62,2.62,0,1,1-2.65-2.58A2.62,2.62,0,0,1,68.82,129.28Z"/><path class="cls-11" d="M81.66,123.85c-.16-3.73-2.6-6.85-5.44-7a3.69,3.69,0,0,0-.88.07l-.79.15,0,.08c-2,.84-3.33,3.29-3.2,6.26.16,3.73,2.6,6.85,5.44,7h.07l0,.08.79-.15C80.09,129.89,81.81,127.19,81.66,123.85Z"/><path class="cls-10" d="M80.87,124c.16,3.73-2,6.67-4.85,6.56s-5.28-3.23-5.44-7,2-6.67,4.85-6.56S80.71,120.27,80.87,124Z"/><path class="cls-9" d="M80.31,124c.1,3.31-2,5.91-4.74,5.8s-5-2.88-5.1-6.19,2-5.91,4.74-5.8S80.21,120.68,80.31,124Z"/><path class="cls-11" d="M75.81,124.4c-.09-2.13-1.48-3.9-3.1-4a6.84,6.84,0,0,0-.79.12l-.45.08v.05a3.57,3.57,0,0,0-1.82,3.57c.09,2.12,1.48,3.9,3.1,4,0,0,.5,0,.5,0l.16,0A3.5,3.5,0,0,0,75.81,124.4Z"/><path class="cls-10" d="M75.07,124.56c.09,2.13-1.15,3.8-2.77,3.74s-3-1.84-3.09-4,1.14-3.8,2.76-3.73S75,122.44,75.07,124.56Z"/><path class="cls-9" d="M74.7,123.17l-1.48,5.9a.69.69,0,0,1-.55.51L65,130.88a.67.67,0,0,1-.39-.07l-4.72-2.6a.83.83,0,0,1-.4-.94l1.5-5.76a1,1,0,0,1,.8-.73l7.64-1.2a.62.62,0,0,1,.38.07l4.54,2.6A.83.83,0,0,1,74.7,123.17Z"/><path class="cls-12" d="M67,124.83,65.58,130a.22.22,0,0,0,.25.27l6.75-1.06a.43.43,0,0,0,.35-.32l1.3-5a.25.25,0,0,0-.28-.32l-6.57,1A.49.49,0,0,0,67,124.83Z"/><path class="cls-12" d="M60.14,127.61,64,129.76a.31.31,0,0,0,.45-.18l1.35-4.86a.48.48,0,0,0-.23-.54L61.63,122a.22.22,0,0,0-.33.14l-1.36,5A.41.41,0,0,0,60.14,127.61Z"/><path class="cls-10" d="M100.09,86.71a2.2,2.2,0,1,1,1.69-2.62A2.21,2.21,0,0,1,100.09,86.71Z"/><path class="cls-11" d="M106.72,96.42c3.06-.76,5.23-3.29,4.85-5.66a3.23,3.23,0,0,0-.2-.71l-.26-.64-.07,0c-1-1.5-3.27-2.2-5.7-1.59-3.06.75-5.23,3.29-4.85,5.65,0,0,0,0,0,.06l-.07,0,.26.63C101.47,96.13,104,97.1,106.72,96.42Z"/><path class="cls-10" d="M106.47,95.79c-3.06.76-5.85-.55-6.24-2.92s1.79-4.9,4.85-5.65,5.85.54,6.23,2.91S109.53,95,106.47,95.79Z"/><path class="cls-9" d="M106.38,95.33c-2.73.63-5.23-.69-5.59-3s1.54-4.62,4.26-5.26,5.23.69,5.59,3S109.1,94.69,106.38,95.33Z"/><path class="cls-11" d="M105.29,91.67c1.75-.43,3-1.87,2.76-3.22a4.83,4.83,0,0,0-.22-.64l-.15-.36a3.14,3.14,0,0,0-3.29-.89c-1.74.43-3,1.88-2.76,3.23,0,0,.11.4.11.4l.06.13A2.93,2.93,0,0,0,105.29,91.67Z"/><path class="cls-10" d="M105,91.09c-1.74.43-3.33-.31-3.55-1.66s1-2.8,2.76-3.23,3.34.31,3.55,1.66S106.78,90.66,105,91.09Z"/><path class="cls-9" d="M106.12,90.55,101,90.31a.56.56,0,0,1-.5-.37l-2.36-6.15a.45.45,0,0,1,0-.34l1.36-4.34a.69.69,0,0,1,.7-.48l5,.27a.84.84,0,0,1,.74.55l2.26,6.11a.5.5,0,0,1,0,.32l-1.39,4.19A.71.71,0,0,1,106.12,90.55Z"/><path class="cls-12" d="M103.46,84.44,99,84.15a.18.18,0,0,0-.19.25l2,5.4a.37.37,0,0,0,.32.24l4.4.23a.22.22,0,0,0,.21-.29l-1.92-5.26A.42.42,0,0,0,103.46,84.44Z"/><path class="cls-12" d="M100,79.25l-1.13,3.57a.25.25,0,0,0,.23.33l4.23.31a.41.41,0,0,0,.42-.28L105,79.54a.19.19,0,0,0-.17-.25l-4.4-.28A.36.36,0,0,0,100,79.25Z"/><path class="cls-10" d="M167.94,47.69a2.2,2.2,0,1,1,2.86-1.22A2.2,2.2,0,0,1,167.94,47.69Z"/><path class="cls-11" d="M168,59.45c3,1.08,6.18.2,7.18-2a3.05,3.05,0,0,0,.24-.7l.14-.67-.07,0c0-1.81-1.49-3.65-3.84-4.51-3-1.08-6.18-.2-7.18,2l0,.05h-.07l-.14.66C163.81,56.27,165.36,58.48,168,59.45Z"/><path class="cls-10" d="M168.14,58.78c-3-1.08-4.54-3.72-3.53-5.9s4.22-3.06,7.18-2,4.54,3.73,3.53,5.91S171.1,59.87,168.14,58.78Z"/><path class="cls-9" d="M168.32,58.35c-2.61-1-3.94-3.49-3-5.57s3.87-3,6.48-2,3.94,3.49,3,5.58S170.94,59.35,168.32,58.35Z"/><path class="cls-11" d="M169.47,54.72c1.69.62,3.52.11,4.09-1.13a5.19,5.19,0,0,0,.17-.65l.08-.38A3.12,3.12,0,0,0,171.58,50c-1.68-.61-3.52-.11-4.09,1.13-.05,0-.13.4-.13.4l0,.14A3,3,0,0,0,169.47,54.72Z"/><path class="cls-10" d="M169.58,54.09c-1.68-.62-2.58-2.13-2-3.37S170,49,171.66,49.6s2.59,2.12,2,3.36S171.27,54.7,169.58,54.09Z"/><path class="cls-9" d="M170.79,54.25l-4.12-3.07a.55.55,0,0,1-.21-.59l1.48-6.42a.53.53,0,0,1,.18-.28l3.56-2.84a.71.71,0,0,1,.86,0l4,3a.83.83,0,0,1,.31.87l-1.55,6.33a.48.48,0,0,1-.17.27l-3.5,2.69A.69.69,0,0,1,170.79,54.25Z"/><path class="cls-12" d="M172,47.7,168.46,45a.18.18,0,0,0-.29.1l-1.36,5.6A.38.38,0,0,0,167,51l3.51,2.65a.22.22,0,0,0,.34-.12l1.35-5.44A.42.42,0,0,0,172,47.7Z"/><path class="cls-12" d="M172.05,41.47l-2.93,2.32a.26.26,0,0,0,0,.41l3.34,2.62a.39.39,0,0,0,.5,0l3-2.35a.19.19,0,0,0,0-.3l-3.5-2.7A.35.35,0,0,0,172.05,41.47Z"/><path class="cls-14" d="M116.31,206.63v3.79a5.07,5.07,0,0,0-.64,3.42c.76,1,2.27,1.22,3.88,1.32,1.83,1.33,3.71,2.47,5.39,2.42,1.87.32,4.79-1.27,3.75-2.87-.74-1.13-2.59-1.6-5-2.51s-2-1.74-2-1.74l-1-3.83Z"/><path class="cls-15" d="M111.15,181.58c.31,3.72,2,8.3,4.52,12.87-1.92,3.49,0,10.2-.34,16.15.27,2.46,5.06,2.81,6.43-.14a105.11,105.11,0,0,1,0-18.61,41.84,41.84,0,0,0-3-17.39v-5.29l-10.56,8.37Z"/><path class="cls-14" d="M99.1,215.26l-.18,2.41-.18,2.24a16.84,16.84,0,0,0,1.05,4.88,3.61,3.61,0,0,0,3.15,2.37l2.69-.41c.8-.51.84-1.36.18-2.51l-2-3.87-.55-2.06-.13-3.37Z"/><path class="cls-16" d="M112.47,181.85c-.56,6.74-1.82,12.86-5,17.25a89.1,89.1,0,0,0-3,18.57c-.32,1.63-5.34,2.33-5.8.05a55.43,55.43,0,0,1-.38-5.63c-.08-6,1-11.88,3.94-16.27a58.71,58.71,0,0,1,1.1-14.42,22.47,22.47,0,0,1,1.17-7,13.57,13.57,0,0,1,.74-1.74A19.51,19.51,0,0,0,108,173h.15a14.26,14.26,0,0,0,10.63-3.85C119.08,174.76,118.36,179.76,112.47,181.85Z"/><path class="cls-17" d="M108.21,172.93l-.07.09a15.93,15.93,0,0,0-3.58,8.2,36,36,0,0,0-.78,15.14c-3.11,3.58-4.68,9.2-5.56,15.73-.08-6,1-11.88,3.94-16.27a58.71,58.71,0,0,1,1.1-14.42,22.47,22.47,0,0,1,1.17-7L108,173Z"/><path class="cls-18" d="M131.41,130.34l-.14,4.13,1.65.73,1.18-.73C134.12,132.66,133.41,130.79,131.41,130.34Z"/><path class="cls-19" d="M130.9,131.75l.92-2.43a10,10,0,0,1-1.3-3,6.6,6.6,0,0,0-.75-2c-.38-.81.12-1.34.69-.6l1,1.76a1,1,0,0,0,.79.27,2.92,2.92,0,0,0,.71-1.3l.15-1.88v-1.44c0-.61.62-.73.8,0l.18,1.53-.13,1.86.58-1,.31-1.78c.07-.61.66-.65.72.11l-.21,2-.51,1.47.72-1.23.44-1.06c.33-.65.79-.29.58.41l-.44,1.57c.27-.56.72-.1.39.75l-.8,2-.56,1.33-.95,1.19-1.61,4.25Z"/><path class="cls-5" d="M130.9,131.75l1.79,3.35,1.17-3.64a2.59,2.59,0,0,1-2.13-1.9Z"/><path class="cls-20" d="M134.1,134.47a18.12,18.12,0,0,1-6,9.74c-3.43,3.56-6.94,7-11.17,8.3l-.79.53-1.32.9-1.56-7.68a10.37,10.37,0,0,1,3.93-2.19l7.8-3.69,6.39-10c.16,1.58.57,3.95,1.87,4.21A1.5,1.5,0,0,0,134.1,134.47Z"/><path class="cls-21" d="M134.1,134.47a18.12,18.12,0,0,1-6,9.74c-3.43,3.56-6.94,7-11.17,8.3l-.79.53-.14-2.2c3.71-.68,7.46-3.41,10.66-6.9,3.29-1.73,5.16-5.24,6.59-9.38A1.61,1.61,0,0,0,134.1,134.47Z"/><path class="cls-18" d="M84.73,152.73c-.79-2.35.07-3.48,1.37-4.28L88,151l-.92,1.9Z"/><path class="cls-19" d="M86.75,152.33,84.5,150.1l-2.1-1.65-2.19-1.69-.64-1.14-.13-.55-.54-1c-.44-.61-.09-1,.29-.74l-.16-.41c-.3-.75.17-.83.62-.32l1.25,1.7,1.87,1.24.27-.42-.43-2.19c-.18-.73.39-1,.72-.3l.81,2.18L85.6,148l2.1,1.53Z"/><path class="cls-5" d="M85.6,148c.3.91-.12,1.6-1.1,2.13L87,152.7l1.16-2.83Z"/><path class="cls-20" d="M99.51,152.11v7.29l4.54,16.2c5.85,1.64,12.11,3.78,14.86-1.84a92.54,92.54,0,0,0-.87-17.18l-1.55-5.84-2.6-5-7.26,2.71Z"/><path class="cls-20" d="M102.35,159a6.38,6.38,0,0,1-2.84.37,22,22,0,0,1-7.39-2.55l-7.39-4.12c1.42.18,2.32-2.73,1.55-4.28l7.21,3.38,6,.27a3,3,0,0,1,3.56,1.64C104.24,156.62,103.92,158.32,102.35,159Z"/><path class="cls-5" d="M103.78,149.92a35.87,35.87,0,0,1,9.52,8.8,26.7,26.7,0,0,0-1.75-12.48A27.74,27.74,0,0,0,103.78,149.92Z"/><path class="cls-19" d="M104.56,150.15l1-5.12,4.78-.46,1.34,5C112.2,152.33,106,152.89,104.56,150.15Z"/><path class="cls-22" d="M106.72,147.72c.34,3,4.2,8.63,6.67,7.39,2-2.87,1.76-5.77.18-8.71Z"/><path class="cls-19" d="M106.53,147.6l.35.52,1,1.42a1.47,1.47,0,0,0,.89.61l2.74.62a2.28,2.28,0,0,0,1.78-.74.77.77,0,0,0,.22-.52c.13-1.81.46-3.94.09-4.94l0-.37a5.28,5.28,0,0,0-.57-2.06l-1.2-2a4.84,4.84,0,0,0-4.84-1.87,4.61,4.61,0,0,0-3,3.37,5.62,5.62,0,0,0,.92,4Z"/><path class="cls-14" d="M105,146.5l1.76.26-.27-1.71c-.27-2.81,3.28-1.41,4.66-2.43,1.13-.84.61-2.65,2-.11a6,6,0,0,0-1.9-3.43,4.85,4.85,0,0,0-4.63-.86c-2.35.57-3.07,2.36-3.1,4.29A5.63,5.63,0,0,0,105,146.5Z"/><path class="cls-19" d="M105.61,145.27a.81.81,0,0,0-.55-.2.74.74,0,0,0-.61.74,2,2,0,0,0,.32,1,3.44,3.44,0,0,0,.54.77,1.26,1.26,0,0,0,.84.4.4.4,0,0,0,.32-.1.44.44,0,0,0,.09-.18,2.23,2.23,0,0,0-.3-1.42A2.29,2.29,0,0,0,105.61,145.27Z"/><path class="cls-21" d="M84.73,152.73l7.39,4.12a22,22,0,0,0,7.39,2.55l4.54,16.2,2,.58c-2.68-4.52-4.21-13.59-3.76-17.16,0-.28.1-.57.16-.84a10.33,10.33,0,0,1-3,0,20.79,20.79,0,0,1-5.66-2Z"/><path class="cls-20" d="M112.81,191.92,88.3,186.63v38.6a2.56,2.56,0,0,0,1.5,2.09l8.88,5.12c7.32,4.23,19.19,4.23,26.51,0l14.15-8.17a2.56,2.56,0,0,0,1.5-2.09v-38.6Z"/><path class="cls-23" d="M106.07,187l-6.65-3.84a8,8,0,0,0-7.24,0l-2.38,1.37a2.21,2.21,0,0,0,0,4.18l8.88,5.12c7.32,4.23,19.19,4.23,26.51,0l14.15-8.17a2.21,2.21,0,0,0,0-4.18L137,180.12a8,8,0,0,0-7.24,0L117.8,187A13,13,0,0,1,106.07,187Z"/><path class="cls-2" d="M111.93,198.93a28.84,28.84,0,0,1-14.21-3.43l-8.88-5.12a4.09,4.09,0,0,1,0-7.5l2.38-1.38a9.92,9.92,0,0,1,9.16,0l6.65,3.84a11,11,0,0,0,9.81,0l11.93-6.88a9.85,9.85,0,0,1,9.16,0l2.37,1.37a4.09,4.09,0,0,1,0,7.5l-14.15,8.17A28.91,28.91,0,0,1,111.93,198.93Z"/><path class="cls-5" d="M111.93,197.48a28.73,28.73,0,0,1-14.21-3.43l-8.88-5.12a4.09,4.09,0,0,1,0-7.5l2.38-1.37a9.85,9.85,0,0,1,9.16,0l6.65,3.83a11,11,0,0,0,9.81,0L128.77,177a9.85,9.85,0,0,1,9.16,0l2.37,1.37a4.09,4.09,0,0,1,0,7.5l-14.15,8.17A28.8,28.8,0,0,1,111.93,197.48Z"/><path class="cls-5" d="M123.75,208.38c0,2.84,2,4,4.46,2.58a9.87,9.87,0,0,0,4.45-7.72c0-2.84-2-4-4.45-2.57A9.84,9.84,0,0,0,123.75,208.38Z"/><polygon class="cls-5" points="117.53 220.39 138.88 208.06 138.88 205.89 117.53 218.22 117.53 220.39"/><polygon class="cls-5" points="119.66 222.26 136.76 212.39 136.75 210.21 119.66 220.08 119.66 222.26"/><polygon class="cls-5" points="121.51 224.28 134.91 216.55 134.91 214.37 121.51 222.11 121.51 224.28"/><polygon class="cls-5" points="123.75 226.08 132.66 220.94 132.66 218.76 123.75 223.9 123.75 226.08"/><path d="M200.74,162.6a.46.46,0,0,0,.46-.41l1.17-12,7.83-4.52,1.11,10.18a.46.46,0,0,0,.51.4.45.45,0,0,0,.4-.5L211,144.17l-9.44,5.45-1.22,12.48a.45.45,0,0,0,.41.49Z"/><path class="cls-20" d="M213,127.3a.39.39,0,0,0-.41,0,1.28,1.28,0,0,0-.58.92l-1.48,14.48a1.14,1.14,0,0,1-.51.82l-8.14,4.72a2.48,2.48,0,0,0-1.11,1.93v.21l10.93,6.31,10.2-6.83,2-16.3L213,127.31Z"/><path d="M211.67,168.91a.46.46,0,0,0,.45-.41l1.17-12,7.84-4.52,1.11,10.18a.46.46,0,0,0,.5.4.47.47,0,0,0,.41-.5l-1.27-11.57-9.45,5.46-1.21,12.48a.44.44,0,0,0,.41.49Z"/><path class="cls-2" d="M211.67,156.71l10.91-6.3,1.47-16.36c0-.42-.22-.61-.57-.41a1.29,1.29,0,0,0-.58.92L221.43,149a1.12,1.12,0,0,1-.52.82l-8.13,4.72a2.48,2.48,0,0,0-1.11,1.93Z"/><path d="M196,121.31a.45.45,0,0,1-.45-.41l-1.17-12-7.83-4.52-1.12,10.18a.46.46,0,0,1-.5.4.45.45,0,0,1-.4-.5l1.26-11.57,9.45,5.46,1.21,12.48a.44.44,0,0,1-.41.49Z"/><path class="cls-20" d="M183.81,86a.41.41,0,0,1,.41,0,1.29,1.29,0,0,1,.58.92l1.47,14.48a1.12,1.12,0,0,0,.52.82l8.13,4.72a2.48,2.48,0,0,1,1.11,1.93v.2l-10.92,6.31-10.21-6.82-2-16.3L183.79,86Z"/><path d="M185.1,127.62a.45.45,0,0,1-.45-.41l-1.17-12-7.83-4.52-1.12,10.17a.47.47,0,0,1-.5.41.45.45,0,0,1-.4-.5l1.27-11.57,9.44,5.45,1.21,12.48a.45.45,0,0,1-.4.5Z"/><path class="cls-2" d="M185.11,115.43l-10.92-6.3-1.47-16.37c0-.41.23-.6.57-.4a1.29,1.29,0,0,1,.58.91l1.48,14.49a1.14,1.14,0,0,0,.51.82L184,113.3a2.45,2.45,0,0,1,1.12,1.93Z"/><path class="cls-19" d="M172,126.2c1.2,2.36,1.09,7,.88,11.94.08,3-1.09,5.72-2.79,9.56l-1.18,5.55a13,13,0,0,1-.92-5.42c.53-3.89.88-6.57,1.36-10.09l-1-6.83C167.25,128,169.59,123.91,172,126.2Z"/><path d="M174.44,120.13c-2.59.37-3.09,3.49-4.05,5.33C166.59,122.59,169.28,116.87,174.44,120.13Z"/><path class="cls-2" d="M177.6,179.8a8.11,8.11,0,0,1-2.3,3.15c-1.27,1-2.45,1.65-3.45,1.51-1-.36-.91-1.17-.53-2.29a9,9,0,0,1,3.12-3.13s1.5-1.28,1.5-1.34S177.6,179.8,177.6,179.8Z"/><path class="cls-24" d="M170.58,166.71a94.11,94.11,0,0,0,5.1,11.24s-2.65,2.31-1.56,3.15c1.62,1.23,3.69-2.66,3.69-2.66l-3.07-10.72Z"/><path class="cls-2" d="M179.66,181.8l.05.15c.47,0,1.06,1.56.85,2.75-.66,1.76,0,3.15-.24,5.14a3.46,3.46,0,0,1-1.56,2.73c-1.62,1-2.82,1.15-3-.22a6.68,6.68,0,0,1,.43-3.29l.77-3.81Z"/><path class="cls-19" d="M177.36,189.37c2.21.28,2.57-2.44,2.59-4.85,0-.72,0-1.41,0-2-2-4.93,1.5-9.36-.87-13.65l.31-1.76.8-4.7-5.68-.68-1,5.21-.36,3.1c.63,4.14,3.4,8.79,4,13.22C177.19,185.31,176,189.21,177.36,189.37Z"/><path class="cls-19" d="M176.75,169.64c2.63,2.09.3,10.84,3.2,14.88,0-.72,0-1.41,0-2-2-4.93,1.5-9.36-.87-13.65l.31-1.76C178.2,168.22,176.75,169.64,176.75,169.64Z"/><path class="cls-16" d="M168.85,153.83c-.17,6.08,1.59,6.91,1.43,11.15a3.55,3.55,0,0,0,.11,1.05,5.31,5.31,0,0,0,2.59,3.54,2.43,2.43,0,0,0,.38.13,10.79,10.79,0,0,0,3.51,0,3.5,3.5,0,0,0,2.62-2.11c0-4.51,3.38-7.68,3.75-13.65a8.9,8.9,0,0,0-2.06-6.72l-2,0-9.9-.16Z"/><path class="cls-17" d="M180.28,159.94c-2.07,3.14-2.21,7.53-3.53,9.7l.12,0a3.5,3.5,0,0,0,2.62-2.11c0-4.51,3.38-7.68,3.75-13.65a8.9,8.9,0,0,0-2.06-6.72l-2,0-5.5,3c3,.74,5.67,1.89,6.74,4.9L180,157Z"/><path d="M175.63,122.45c3.61-.3,5.13,2.21,5.44,4.49a7.18,7.18,0,0,1-1.31,5.87,21,21,0,0,1-2.86,3c-1.26-5.9,1.63-9.39.55-11.14a4,4,0,0,0-1.84-1.37Z"/><path class="cls-20" d="M169.93,140.33a13.39,13.39,0,0,1-.65,6.67,3.3,3.3,0,0,0,3,2.93c4.18.78,7.68-.1,9.35-2.29-1.51-1.56-1.49-3.93-.52-6.13a12.78,12.78,0,0,0,1.53-4,19.8,19.8,0,0,0,.29-5.6c-2-2-4.09-3.73-6.46-4.25l-5.24-2c-1.57.22-2.82,3-2.4,5.14-.21,3.26-1.81,4.63-1.86,6.65C166.94,139.13,168,140.19,169.93,140.33Z"/><path class="cls-21" d="M169.28,147a3.3,3.3,0,0,0,3,2.93c4.18.78,7.68-.1,9.35-2.29-1.51-1.56-1.49-3.93-.52-6.13a12.78,12.78,0,0,0,1.53-4l-2.44-.07c-1.49,3.22-2.14,6.39-5.3,5.8-2.19-.41-2.88-2.23-2.35-4.45a3.94,3.94,0,0,1-2.62,1.5A13.39,13.39,0,0,1,169.28,147Z"/><path class="cls-19" d="M178.84,128.63a8.29,8.29,0,0,1-1.06-3.72l-4.17.34,0,3C172.1,132.53,178.43,131.4,178.84,128.63Z"/><path class="cls-22" d="M176.22,125.86c-.3,2.46-1.17,6.14-3.39,5-1.29-.68-.82-2.74-.55-4.51Z"/><path class="cls-19" d="M177.86,125.68c2.33-3.92,1.14-7.33-2.05-8.07-3.48-.81-5.82,1.69-5.82,4.75-.1,3.22.71,5.51,1.93,5.7a3.55,3.55,0,0,0,4.07-1.92Z"/><path d="M178.39,126.21l.09,1.71c-.65-1.85-1.6-1.91-1.68-2.44l-.16-1-.91.39c-1.88.1-2.22-3.19-5.73-2.77-.31-3.14,2-4.87,4.91-4.84,3.49.29,4.6,2.32,4.48,4.82A8.78,8.78,0,0,1,178.39,126.21Z"/><path class="cls-19" d="M175.7,125.92c-.18-.49-.23-.44-.15-.66.21-.62.6-1.1,1-1s.54.12.65.36a1.1,1.1,0,0,1-.11.88,2,2,0,0,1-.32.57.66.66,0,0,1-.58.23A.61.61,0,0,1,175.7,125.92Z"/><path class="cls-17" d="M170.39,166a5.31,5.31,0,0,0,2.59,3.54,5.72,5.72,0,0,1-.29-1.22c-.39-3,.84-5.61.31-7.32a9.89,9.89,0,0,1-.86,3A6.21,6.21,0,0,1,170.39,166Z"/><path class="cls-19" d="M169.54,151.29a.53.53,0,0,0,.61.16c.64-.28,1.26-.46,1.79,0a1.27,1.27,0,0,1-.27.79l0,.07a13.15,13.15,0,0,1-2.06,1.94.29.29,0,0,0-.07.34.4.4,0,0,0,.42.18c-.13.23.15.45.45.32l.45-.21c-.08.29.28.35.47.19l.89-.49a6,6,0,0,0,1.59-1l.21-.18a9,9,0,0,0,1.49-2.44c.09-.81-.51-1.18-1.51-1.13l-1.21.11a14.72,14.72,0,0,0-3.19.92A.26.26,0,0,0,169.54,151.29Z"/><path class="cls-19" d="M169.5,154.59a.4.4,0,0,0,.42.18c-.13.23.15.45.45.32l.45-.21c-.08.29.28.35.47.19l.89-.49a6,6,0,0,0,1.59-1,1.91,1.91,0,0,1-1.41-.82C171.52,153.62,170.19,154.66,169.5,154.59Z"/><path class="cls-19" d="M169.55,151.3a.52.52,0,0,0,.6.15c.64-.28,1.26-.46,1.79,0a1.27,1.27,0,0,1-.27.79l.69-1C171.36,150.57,170.16,151.3,169.55,151.3Z"/><path class="cls-25" d="M169.54,151.29a.53.53,0,0,0,.61.16c.64-.28,1.26-.46,1.79,0a1.27,1.27,0,0,1-.27.79l0,.07a13.15,13.15,0,0,1-2.06,1.94.29.29,0,0,0-.07.34.4.4,0,0,0,.42.18c-.13.23.15.45.45.32l.45-.21c-.08.29.28.35.47.19l.89-.49a6,6,0,0,0,1.59-1l.21-.18a9,9,0,0,0,1.49-2.44c.09-.81-.51-1.18-1.51-1.13l-1.21.11a14.72,14.72,0,0,0-3.19.92A.26.26,0,0,0,169.54,151.29Z"/><path class="cls-19" d="M169.5,154.59a.4.4,0,0,0,.42.18c-.13.23.15.45.45.32l.45-.21c-.08.29.28.35.47.19l.89-.49a6,6,0,0,0,1.59-1,1.91,1.91,0,0,1-1.41-.82C171.52,153.62,170.19,154.66,169.5,154.59Z"/><path class="cls-19" d="M169.55,151.3a.52.52,0,0,0,.6.15c.64-.28,1.26-.46,1.79,0a1.27,1.27,0,0,1-.27.79l.69-1C171.36,150.57,170.16,151.3,169.55,151.3Z"/><path class="cls-19" d="M182.93,132c1.69,2.4,1.14,10.92.58,12.94a28.48,28.48,0,0,1-8.32,6.72c.15-.88.45-1.56-1-1.74l6-7.15c-.63-1.94-.57-4.05-.75-6.93C179.81,130.05,182.65,131.47,182.93,132Z"/></g></g></g></svg>