<svg xmlns="http://www.w3.org/2000/svg" xmlns:xlink="http://www.w3.org/1999/xlink" viewBox="0 0 101.77 173.38"><defs><style>.cls-1{fill:none;}.cls-2{isolation:isolate;}.cls-3{fill:#ff4555;}.cls-4{fill:#9e2e3b;}.cls-5{fill:#dce1cb;}.cls-6{fill:#9d9d9c;}.cls-7{clip-path:url(#clip-path);}.cls-16,.cls-8{fill:#ffae80;}.cls-9{fill:#d6eeeb;}.cls-10{fill:#0b1017;}.cls-11{fill:#e89768;}.cls-12,.cls-14{fill:#2d2856;}.cls-13,.cls-15{fill:#924fc2;}.cls-14,.cls-15,.cls-16{opacity:0.5;mix-blend-mode:multiply;}.cls-17{fill:#fff;}</style><clipPath id="clip-path"><path class="cls-1" d="M75.45,102.52l3.29-11.24L75.43,78.65l-21-7.11L34.58,81.23,23.66,113.7c1.44,2.73,4.16,5.27,8.16,7.32,10.61,5.41,26.91,5.22,37.22-.42l.54-.3c8.33-4.81,10.29-11.91,5.87-17.78Z"/></clipPath></defs><g class="cls-2"><g id="Layer_2" data-name="Layer 2"><g id="Layer_1-2" data-name="Layer 1"><path class="cls-3" d="M3.25,119.09,3.34,152a3.26,3.26,0,0,0,.36,1.43c2.41,4.72,7,9,13.23,12.42,9,4.92,20.92,7.6,33.48,7.54s24.41-2.86,33.35-7.87l.53-.3c9.54-5.51,14.3-12.75,14.28-20l-.1-32.91v.07c0-7.16-4.67-14.31-14-19.76a61.72,61.72,0,0,0-20.06-7,14.15,14.15,0,0,0-9.12,1.31c-1.69,1-2.63,2.28-2.63,3.66v.3l.1,32.9c0,2.25,2.57,4.22,6.42,4.92l.76.15c-10,2-21.45.91-29.7-3.3-4.19-2.14-7.26-4.89-8.88-7.95-1.18-2.25-4.65-3.76-8.62-3.75h-.37a12.87,12.87,0,0,0-6.4,1.53c-1.74,1-2.67,2.35-2.66,3.72Zm88.47,7.62.53-.55Zm6.69-13c0-.22,0-.44,0-.66C98.43,113.31,98.43,113.53,98.41,113.75Zm-.16,1.34c0-.21,0-.43.08-.65C98.3,114.66,98.28,114.88,98.25,115.09ZM98,116.44c.06-.22.1-.43.14-.65C98.06,116,98,116.22,98,116.44Zm-.39,1.33c.07-.21.13-.42.19-.63C97.7,117.35,97.64,117.56,97.57,117.77Zm-.5,1.33c.09-.21.16-.42.24-.63C97.23,118.68,97.16,118.89,97.07,119.1Zm-.61,1.31c.1-.2.19-.41.29-.62C96.65,120,96.56,120.21,96.46,120.41Zm-.73,1.3c.12-.2.23-.4.34-.61C96,121.31,95.85,121.51,95.73,121.71ZM94.9,123l.39-.6Zm-1,1.26.44-.58Zm-1.06,1.24c.17-.18.32-.37.48-.56C93.21,125.12,93.06,125.31,92.89,125.49Zm-6.45,5.42-.51.35Zm1.69-1.18-.59.44Zm1.51-1.17-.59.49ZM91,127.37l-.56.52ZM3.31,119.58c0,.08,0,.16,0,.24C3.33,119.74,3.33,119.66,3.31,119.58Z"/><path class="cls-4" d="M.86,115.59c0-1.79,1.27-3.46,3.38-4.68a16.59,16.59,0,0,1,8.12-2h.37c5.06,0,9.45,1.94,10.93,4.74S27.82,119,31.82,121c10.61,5.41,26.91,5.22,37.22-.42l.54-.3c4.73-2.73,7.41-6.2,8-9.76-.63-3.51-3.25-6.92-7.88-9.61a34.91,34.91,0,0,0-11.37-4c-4.79-.86-8.14-3.36-8.13-6.26V87.11c0-1.85,1.31-3.48,3.35-4.66a17.85,17.85,0,0,1,11.55-1.66,64.42,64.42,0,0,1,21.06,7.35C96,93.87,101,101.38,101,108.9c0,0,0-.05,0-.08v3.29c0,7.59-5,15.19-15,21l-.55.32c-19.43,10.88-50.57,11-70.18.35-6.8-3.71-11.43-8.23-13.88-13a4,4,0,0,1-.47-1.84v-3.29Z"/><path class="cls-5" d="M4.24,110.91C1.42,112.54.08,115,1.33,117.42c2.45,4.82,7.08,9.34,13.88,13C34.82,141.16,66,141,85.39,130.12l.55-.32c19.93-11.5,20-30.16.24-41.66a64.42,64.42,0,0,0-21.06-7.35,17.85,17.85,0,0,0-11.55,1.66c-2,1.18-3.34,2.81-3.35,4.66v.29c0,2.9,3.34,5.4,8.13,6.26a34.91,34.91,0,0,1,11.37,4c10.76,6.25,10.7,16.4-.14,22.66l-.54.3c-10.31,5.64-26.61,5.83-37.22.42-4-2-6.72-4.59-8.16-7.32S17.79,109,12.73,109h-.37A16.59,16.59,0,0,0,4.24,110.91Z"/><rect class="cls-4" x="9.66" y="53.04" width="2.48" height="60.51"/><ellipse class="cls-4" cx="10.9" cy="113.56" rx="1.24" ry="0.72"/><ellipse class="cls-6" cx="10.9" cy="53.04" rx="1.24" ry="0.72"/><rect class="cls-4" x="83.44" y="63.81" width="2.48" height="60.51"/><path class="cls-4" d="M85.56,123.81a.54.54,0,0,1,0,1,1.93,1.93,0,0,1-1.75,0,.54.54,0,0,1,0-1A1.93,1.93,0,0,1,85.56,123.81Z"/><path class="cls-6" d="M85.56,63.3c.49.28.49.73,0,1a1.93,1.93,0,0,1-1.75,0c-.49-.28-.49-.73,0-1A1.93,1.93,0,0,1,85.56,63.3Z"/><rect class="cls-4" x="57.41" y="2.12" width="2.48" height="83.59"/><path class="cls-4" d="M59.53,85.2a.54.54,0,0,1,0,1,2,2,0,0,1-1.76,0,.54.54,0,0,1,0-1A2,2,0,0,1,59.53,85.2Z"/><ellipse class="cls-6" cx="58.65" cy="2.12" rx="1.24" ry="0.72"/><g class="cls-2"><path class="cls-4" d="M2.42,29.6l.06,19.74c0-7.23,4.74-14.47,14.29-20,19-11,49.65-11,68.5,0,9.37,5.44,14.06,12.57,14.08,19.7l-.06-19.74c0-7.14-4.71-14.26-14.07-19.7-18.86-11-49.53-11-68.5,0C7.17,15.13,2.4,22.37,2.42,29.6Z"/><path class="cls-3" d="M0,29.6.06,49.34C.08,56.83,5,64.31,14.83,70c19.8,11.5,52,11.5,71.92,0,10-5.79,15-13.39,15-21l-.06-19.74c0,7.59-5,15.19-15,21-19.93,11.5-52.13,11.5-71.92,0C4.94,44.57,0,37.09,0,29.6Z"/><path class="cls-5" d="M86.93,8.63c19.8,11.5,19.69,30.15-.23,41.66s-52.13,11.5-71.92,0S-4.91,20.13,15,8.63,67.14-2.88,86.93,8.63ZM85,49.3c19-11,19.08-28.72.23-39.68s-49.53-11-68.5,0S-2.36,38.34,16.49,49.3s49.53,11,68.5,0Z"/></g><g class="cls-7"><path class="cls-8" d="M67.24,100.6,69,99.4a8.56,8.56,0,0,1,.58-2.68A5.48,5.48,0,0,0,70.08,95c.13-.73.73-.85.76-.07s-.11,1.13-.17,1.69a1,1,0,0,0,.41.57,2.45,2.45,0,0,0,1.11-.54l1-1.21.7-1c.3-.42.79-.2.55.38L73.83,96l-1,1.2.89-.41,1.07-1.06c.35-.39.77-.12.44.42L74.1,97.43,73,98.18l1.09-.49.82-.5c.53-.29.67.18.19.56l-1.07.85c.46-.25.55.28-.09.7l-1.53,1-1,.63-1.22.35-3.48,1.37Z"/><path class="cls-9" d="M69.78,101.71a14.06,14.06,0,0,1-2.8,1.36c-1.88.77-5.34,2.37-5.62,2.45a1.88,1.88,0,0,1-2.11-.82c-.91-2.48-4.07-8.7-4-8.9,0,0,1.76-5.36,1.76-5.36,1,1.77,4.83,10.21,4.83,10.21l6.91-1.21h.14A2.38,2.38,0,0,0,69.78,101.71Z"/><path d="M51.55,83.17c3,.33,3.56,3.26,4.67,5C60.65,85.43,57.55,80.08,51.55,83.17Z"/><path class="cls-10" d="M47.84,152.05a9.56,9.56,0,0,0,2.68,3.67c1.47,1.19,2.84,1.91,4,1.76,1.12-.43,1.06-1.37.62-2.66a10.48,10.48,0,0,0-3.63-3.64s-1.73-1.49-1.73-1.55S47.84,152.05,47.84,152.05Z"/><path class="cls-11" d="M56,136.87a108.5,108.5,0,0,1-5.92,13s3.08,2.68,1.81,3.64c-1.87,1.44-4.27-3.08-4.27-3.08L51.17,138Z"/><path class="cls-10" d="M45.46,154.38l-.07.18c-.54,0-1.22,1.81-1,3.19.77,2.05,0,3.65.28,6a4,4,0,0,0,1.81,3.18c1.88,1.12,3.27,1.33,3.49-.26a7.73,7.73,0,0,0-.49-3.82l-.9-4.43Z"/><path class="cls-8" d="M48.13,163.17c-2.57.32-3-2.83-3-5.63,0-.84,0-1.64,0-2.31,2.28-5.73-1.74-10.87,1-15.85l-.35-2-.94-5.45,6.6-.8,1.18,6,.41,3.6c-.73,4.81-4,10.21-4.61,15.35C48.33,158.46,49.66,163,48.13,163.17Z"/><path class="cls-8" d="M48.83,140.27c-3,2.42-.34,12.58-3.71,17.27,0-.84,0-1.64,0-2.31,2.28-5.73-1.74-10.87,1-15.85l-.35-2C47.15,138.61,48.83,140.27,48.83,140.27Z"/><path class="cls-12" d="M58,121.91c.2,7.06-1.84,8-1.66,13a4.29,4.29,0,0,1-.12,1.21,6.19,6.19,0,0,1-3,4.11,2.32,2.32,0,0,1-.44.16,12.86,12.86,0,0,1-4.08,0,4.07,4.07,0,0,1-3-2.45c0-5.23-3.92-8.92-4.35-15.85a10.25,10.25,0,0,1,2.4-7.79l2.31,0,11.5-.18Z"/><path class="cls-13" d="M56.64,107.36c0,.23,0,.45,0,.67a15.07,15.07,0,0,0,.91,6A3.82,3.82,0,0,1,54,117.38a18.93,18.93,0,0,1-2.6.31c-3.69.17-6.68-.89-8.27-3,1.76-1.82,1.73-4.57.61-7.11A14.69,14.69,0,0,1,42,103a23.19,23.19,0,0,1-.35-6.51c2.33-2.36,4.76-4.33,7.5-4.93l6.1-2.31c1.81.26,3.26,3.53,2.78,6,.24,3.78,2.1,5.36,2.15,7.71,0,1.89-1.22,3.12-3.42,3.29,0,.26-.07.5-.09.75Z"/><path class="cls-14" d="M48.83,140.27l-.14,0a4,4,0,0,1-3-2.44c0-5.23-3.92-8.92-4.36-15.85a10.56,10.56,0,0,1,1.91-7.19.22.22,0,0,0-.05-.08c1.59,2.07,4.58,3.13,8.27,3,.11.39.23.79.37,1.21a16.62,16.62,0,0,1-3.88-1C42.26,122.63,45.58,134.92,48.83,140.27Z"/><path class="cls-15" d="M56.76,106.24c0,.26-.07.5-.09.75s0,.26,0,.37,0,.45,0,.67c-5.63,2.41-6.34,5.4-5.16,9.66-3.69.17-6.68-.89-8.27-3,1.76-1.82,1.73-4.57.61-7.11A14.69,14.69,0,0,1,42,103l3.77-2c.63,9.69,8.26,9.12,7.94,3.53A4.57,4.57,0,0,0,56.76,106.24Z"/><polygon class="cls-9" points="53.4 89.97 54.9 92.46 53.82 93.22 55.17 94.1 53.82 101.93 52.4 98.74 51.23 89.27 53.4 89.97"/><path class="cls-8" d="M46.4,92.66a9.56,9.56,0,0,0,1.24-4.32l4.84.4,0,3.45c.79,2.19.64,3.73.76,7.66C51.51,97.77,46.67,94.47,46.4,92.66Z"/><path class="cls-16" d="M49.8,89.27c.34,2.85,1.43,6.38,3,6.33,1.07,0,.82-3.52,1.19-5.61Z"/><path class="cls-8" d="M47.54,89.24c-2.7-4.56-1.32-8.52,2.38-9.38,4-.94,6.76,2,6.76,5.52.12,3.74-.83,6.39-2.24,6.62a4.11,4.11,0,0,1-4.72-2.23Z"/><path class="cls-10" d="M48.27,90.85c.75-2.15.42-1.23.51-1.85L49,87.82l1.07.46c2.18.11,2.57-3.72,6.65-3.23.36-3.64-2.36-5.65-5.7-5.62C43.88,80,43.55,86.87,48.27,90.85Z"/><path class="cls-8" d="M50.06,89.51c.2-.57.26-.5.17-.76-.25-.73-.7-1.28-1.14-1.16s-.62.14-.76.41a1.31,1.31,0,0,0,.13,1,2.38,2.38,0,0,0,.37.66.82.82,0,0,0,.68.27A.74.74,0,0,0,50.06,89.51Z"/><path class="cls-14" d="M56.22,136.07a6.19,6.19,0,0,1-3,4.11,7.19,7.19,0,0,0,.34-1.42c.45-3.45-1-6.5-.37-8.49a11.65,11.65,0,0,0,1,3.49A7.11,7.11,0,0,0,56.22,136.07Z"/><polygon class="cls-9" points="53.82 101.93 53.19 99.85 47.05 91.28 44.97 93.47 46.92 97.03 48.85 95.92 48.27 97.99 53.82 101.93"/></g><path class="cls-8" d="M56,123a.64.64,0,0,1-.75-.1c-.59-.62-1.21-1.1-2-.83a1.47,1.47,0,0,0-.06,1l0,.09a15.07,15.07,0,0,0,1.4,3.13.33.33,0,0,1-.08.42.46.46,0,0,1-.55,0c0,.32-.37.44-.65.15l-.41-.45c0,.37-.48.27-.61,0l-.78-1a7.33,7.33,0,0,1-1.34-1.82l-.15-.3a10.71,10.71,0,0,1-.54-3.42c.27-1,1.12-1.09,2.21-.58L53,120a17.88,17.88,0,0,1,3.15,2.52C56.25,122.71,56.16,122.9,56,123Z"/><path class="cls-8" d="M54.5,126.73a.46.46,0,0,1-.55,0c0,.32-.37.44-.65.15l-.41-.45c0,.37-.48.27-.61,0l-.78-1a7.33,7.33,0,0,1-1.34-1.82,2.28,2.28,0,0,0,2-.27C52.69,124.71,53.7,126.49,54.5,126.73Z"/><path class="cls-8" d="M56,123a.64.64,0,0,1-.75-.1c-.59-.62-1.21-1.1-2-.83a1.47,1.47,0,0,0-.06,1l-.33-1.39C54.28,121.36,55.29,122.73,56,123Z"/><path class="cls-9" d="M41.65,96.51c-1.77,4.21.68,8.42,1.19,13.56a40.15,40.15,0,0,0,6.59,11.2,2.24,2.24,0,0,1,2.68-1.74l-4.94-10.17c-.07-3.15-.49-5.31-.66-9.67,0,0-.11-2.61-1.84-3.5C42.65,95.15,41.65,96.51,41.65,96.51Z"/><path class="cls-3" d="M0,29.6.06,49.34C.08,56.83,5,64.31,14.83,70c19.8,11.5,52,11.5,71.92,0,10-5.79,15-13.39,15-21l-.06-19.74c0,7.59-5,15.19-15,21-19.93,11.5-52.13,11.5-71.92,0C4.94,44.57,0,37.09,0,29.6Z"/><path class="cls-17" d="M98.4,47.3A33.88,33.88,0,0,1,86.75,57.69c-19.89,11.49-52,11.5-71.83.05v6.81C34.73,76,66.86,76,86.75,64.51A34.07,34.07,0,0,0,98.4,54.12Z"/><path class="cls-17" d="M83.86,146.66c-18.67,10.21-48,10.06-66.24-.47v6.37c18.21,10.53,47.57,10.69,66.24.48Z"/><path class="cls-17" d="M93.8,143.88c0,3-.83,5.49-1.86,5.49s-1.87-2.46-1.87-5.49.83-5.5,1.87-5.5S93.8,140.84,93.8,143.88Z"/></g></g></g></svg>