<svg xmlns="http://www.w3.org/2000/svg" viewBox="0 0 76.2 96.62"><defs><style>.cls-1{isolation:isolate;}.cls-2{fill:#2d2856;}.cls-3{fill:#f2f2f2;}.cls-4{fill:#d6eeeb;}.cls-5{fill:#ff4555;}.cls-12,.cls-6{fill:#ffae80;}.cls-7{fill:#0b1017;}.cls-8{fill:#fc9f6a;}.cls-10,.cls-9{fill:#60c1d2;}.cls-10,.cls-11,.cls-12{mix-blend-mode:multiply;}.cls-11{fill:#9e2e3b;}.cls-11,.cls-12{opacity:0.5;}</style></defs><g class="cls-1"><g id="Layer_2" data-name="Layer 2"><g id="Layer_1-2" data-name="Layer 1"><path class="cls-2" d="M59.39,96.62a.76.76,0,0,0,.75-.66L70.29,16.82a.75.75,0,1,0-1.49-.19L58.65,95.77a.75.75,0,0,0,.65.84Z"/><path class="cls-2" d="M75.44,87.35h.12a.75.75,0,0,0,.63-.85l-8-53.29a.75.75,0,0,0-.85-.63.76.76,0,0,0-.64.86l8,53.28A.76.76,0,0,0,75.44,87.35Z"/><path class="cls-2" d="M34.87,82.46a.75.75,0,0,0,.74-.66L45.77,2.67a.76.76,0,1,0-1.5-.2L34.12,81.61a.75.75,0,0,0,.65.84Z"/><path class="cls-2" d="M50.92,73.19H51a.74.74,0,0,0,.63-.85L43.64,19a.75.75,0,1,0-1.49.23l8,53.28A.74.74,0,0,0,50.92,73.19Z"/><polygon class="cls-2" points="65.57 67.67 72.19 16.08 70.9 16.59 64.28 68.18 65.57 67.67"/><polygon class="cls-3" points="72.19 16.08 44.33 0 43.05 0.51 70.9 16.59 72.19 16.08"/><polygon class="cls-4" points="64.28 68.18 70.9 16.59 43.05 0.51 36.43 52.09 64.28 68.18"/><polygon class="cls-2" points="66.38 21.41 47.57 10.6 47.76 9.14 66.56 19.95 66.38 21.41"/><polygon class="cls-5" points="46.3 9.87 45.05 9.15 45.24 7.69 46.48 8.41 46.3 9.87"/><polygon class="cls-2" points="61.19 21.74 47.18 13.69 47.37 12.23 61.38 20.28 61.19 21.74"/><polygon class="cls-5" points="45.9 12.95 44.66 12.24 44.85 10.78 46.09 11.49 45.9 12.95"/><polygon class="cls-2" points="65.59 27.59 46.79 16.77 46.97 15.31 65.78 26.13 65.59 27.59"/><polygon class="cls-5" points="45.51 16.04 44.27 15.32 44.45 13.87 45.7 14.58 45.51 16.04"/><polygon class="cls-2" points="64 29.98 46.39 19.86 46.58 18.4 64.19 28.52 64 29.98"/><polygon class="cls-5" points="45.12 19.13 43.88 18.41 44.06 16.95 45.3 17.67 45.12 19.13"/><polygon class="cls-2" points="63.22 36.16 45.61 26.03 45.8 24.57 63.4 34.7 63.22 36.16"/><polygon class="cls-5" points="44.33 25.3 43.09 24.58 43.28 23.13 44.52 23.84 44.33 25.3"/><polygon class="cls-2" points="62.82 39.24 45.22 29.12 45.4 27.66 63.01 37.78 62.82 39.24"/><polygon class="cls-5" points="43.94 28.38 42.7 27.67 42.88 26.21 44.13 26.93 43.94 28.38"/><polygon class="cls-2" points="63.63 43.02 44.82 32.2 45.01 30.75 63.81 41.56 63.63 43.02"/><polygon class="cls-5" points="43.55 31.47 42.31 30.76 42.49 29.3 43.73 30.01 43.55 31.47"/><polygon class="cls-2" points="62.84 49.19 44.04 38.38 44.23 36.92 63.03 47.73 62.84 49.19"/><polygon class="cls-5" points="42.76 37.64 41.52 36.93 41.71 35.47 42.95 36.18 42.76 37.64"/><polygon class="cls-2" points="62.45 52.28 43.65 41.46 43.83 40 62.64 50.82 62.45 52.28"/><polygon class="cls-5" points="42.37 40.73 41.13 40.02 41.31 38.56 42.56 39.27 42.37 40.73"/><path class="cls-6" d="M5.42,14.58c1.29,2.54,1.18,7.62,1,12.91.09,3.2-1.18,6.18-3,10.33l-1.28,6a14.07,14.07,0,0,1-1-5.86c.57-4.21,1-7.11,1.47-10.92L1.49,19.66C.3,16.49,2.84,12.1,5.42,14.58Z"/><path class="cls-7" d="M10.21,8.22C13,8.62,13.55,12,14.59,14,18.7,10.88,15.78,4.7,10.21,8.22Z"/><path class="cls-5" d="M11.5,72.54A8.85,8.85,0,0,1,9,76c-1.37,1.11-2.64,1.78-3.72,1.64-1-.4-1-1.28-.58-2.48a9.83,9.83,0,0,1,3.38-3.39S9.7,70.34,9.7,70.28,11.5,72.54,11.5,72.54Z"/><path class="cls-8" d="M3.91,58.39A101.3,101.3,0,0,0,9.42,70.55S6.56,73,7.73,73.94c1.75,1.34,4-2.87,4-2.87L8.4,59.47Z"/><path class="cls-5" d="M13.72,74.7l.06.17c.51,0,1.14,1.69.92,3-.72,1.91,0,3.41-.27,5.56a3.74,3.74,0,0,1-1.68,3c-1.76,1-3.05,1.24-3.25-.24A7.09,7.09,0,0,1,10,82.56l.84-4.13Z"/><path class="cls-6" d="M11.23,82.9c2.39.29,2.78-2.64,2.8-5.25,0-.78,0-1.53,0-2.15-2.13-5.34,1.62-10.13-.94-14.77l.32-1.9.88-5.08L8.11,53,7,58.65,6.63,62c.68,4.48,3.68,9.51,4.29,14.29C11.05,78.5,9.8,82.72,11.23,82.9Z"/><path class="cls-6" d="M10.57,61.56c2.85,2.26.33,11.72,3.46,16.09,0-.78,0-1.53,0-2.15-2.13-5.34,1.62-10.13-.94-14.77l.32-1.9C12.14,60,10.57,61.56,10.57,61.56Z"/><path class="cls-9" d="M2,44.45C1.84,51,3.75,51.93,3.58,56.52a3.76,3.76,0,0,0,.12,1.13,5.76,5.76,0,0,0,2.8,3.83,2.83,2.83,0,0,0,.41.14,11.71,11.71,0,0,0,3.8,0,3.75,3.75,0,0,0,2.83-2.28c0-4.87,3.65-8.31,4.06-14.76a9.63,9.63,0,0,0-2.24-7.26l-2.15,0L2.5,37.07Z"/><path class="cls-10" d="M10.57,61.56l.14,0a3.75,3.75,0,0,0,2.83-2.28c0-4.87,3.65-8.31,4.06-14.76a9.63,9.63,0,0,0-2.24-7.26l-2.15,0-6,3.22c3.26.79,6.14,2,7.3,5.29A31.13,31.13,0,0,1,10.57,61.56Z"/><path class="cls-5" d="M3.2,29.86a14.49,14.49,0,0,1-.7,7.21,3.57,3.57,0,0,0,3.24,3.17c4.52.84,8.31-.1,10.12-2.47-1.64-1.7-1.62-4.26-.57-6.63a13.7,13.7,0,0,0,1.65-4.29A20,20,0,0,0,17.32,21c-2.17-2.2-4.49-4.25-7-4.81L4.6,14c-1.69.25-3,3.29-2.59,5.57-.23,3.52-2,5-2,7.18C0,28.56,1.14,29.7,3.2,29.86Z"/><path class="cls-11" d="M2.5,37.07a3.57,3.57,0,0,0,3.24,3.17c4.52.84,8.31-.1,10.12-2.47-1.64-1.7-1.62-4.26-.57-6.63a13.7,13.7,0,0,0,1.65-4.29l-2.64-.07c-1.61,3.47-2.31,6.9-5.72,6.27C6.21,32.61,5.47,30.64,6,28.24A4.32,4.32,0,0,1,3.2,29.86,14.49,14.49,0,0,1,2.5,37.07Z"/><path class="cls-6" d="M12.84,17.2a8.91,8.91,0,0,1-1.15-4l-4.51.37.05,3.22C5.55,21.42,12.39,20.19,12.84,17.2Z"/><path class="cls-12" d="M8.12,14.62c.38,2.22,1.91,5.5,3.6,4.63,1.21-.61,1-1.95.72-3.86Z"/><path class="cls-6" d="M6.51,14.23C4,10,5.28,6.3,8.72,5.49c3.77-.87,6.3,1.84,6.3,5.15.11,3.48-.77,5.95-2.09,6.16a3.81,3.81,0,0,1-4.39-2.07Z"/><path class="cls-7" d="M6.3,15.51l.93,1.26c0-.22.14-2.34.23-2.92l.36-.94,1,.42c2,.11,2.39-3.45,6.2-3,.33-3.39-2.21-5.27-5.32-5.24-3.77.32-5,2.52-4.84,5.22A12.73,12.73,0,0,0,6.3,15.51Z"/><path class="cls-10" d="M3.7,57.65a5.76,5.76,0,0,0,2.8,3.83,6.3,6.3,0,0,1-.31-1.32c-.43-3.22.91-6.07.33-7.92a10.37,10.37,0,0,1-.93,3.25A6.7,6.7,0,0,1,3.7,57.65Z"/><path class="cls-7" d="M9.5,11.43c-3.9-.32-5.55,2.4-5.87,4.86A7.8,7.8,0,0,0,5,22.65a23.31,23.31,0,0,0,3.1,3.22c1.36-6.39-1.76-10.16-.6-12.06a4.39,4.39,0,0,1,2-1.48Z"/><path class="cls-6" d="M8.85,14.48C9,14,9.09,14,9,13.78c-.42-1.22-1.21-1.85-1.76-.7a1.19,1.19,0,0,0,.11.95,2.36,2.36,0,0,0,.35.62.73.73,0,0,0,.63.25A.68.68,0,0,0,8.85,14.48Z"/><path class="cls-8" d="M34,30c.95.62,2.7,0,3.95-.48L39.09,27,37,26.11,33.9,27.54C33.22,28.89,32.67,29.64,34,30Z"/><path class="cls-6" d="M38,29.64a.56.56,0,0,1-.38.05l-.43-.07c-.35-.06-.46-1-.33-1.32l.94-1.56.61-.14.38-.19c.42.27.68.64.19,1.66l-.33,1a.73.73,0,0,1-.35.42Z"/><path class="cls-2" d="M39,26.62c-.64.88-1.33.53-.7-.35l9.92-14.11Z"/><path class="cls-6" d="M33.56,30.09l1.71-.59c.8-.54,1-1.26,1.38-2.26l.94-.36h1.2c.55-.07.55-.64,0-.66L37.37,26l-1.08.27a4.21,4.21,0,0,0-2,.94L32.91,28.7Z"/><path class="cls-6" d="M34.27,27.5c-.62-.12-1.06,1.83,0,2.35-.57.14-6.87,3.46-11.55,1.6l-6.2-3C14,28,15.55,21,17.32,21c1.78,2.14,3,3.41,8.22,7.07Z"/></g></g></g></svg>