<svg xmlns="http://www.w3.org/2000/svg" viewBox="0 0 72.93 91.25"><defs><style>.cls-1{isolation:isolate;}.cls-10,.cls-2{fill:#9e2e3b;}.cls-3{fill:#ff4555;}.cls-4{fill:#d6eeeb;}.cls-5{fill:#60c1d2;}.cls-13,.cls-6{fill:#924fc2;}.cls-7{fill:#fff;}.cls-8{fill:#0b1017;}.cls-11,.cls-9{fill:#ffae80;}.cls-10,.cls-11,.cls-13{opacity:0.5;mix-blend-mode:multiply;}.cls-12{fill:#603480;}.cls-14{fill:#575756;}.cls-15{fill:#d43947;}</style></defs><g class="cls-1"><g id="Layer_2" data-name="Layer 2"><g id="Layer_1-2" data-name="Layer 1"><polygon class="cls-2" points="39.59 78.96 39.59 80.99 36.78 79.37 36.78 77.34 39.59 78.96"/><polygon class="cls-3" points="55.22 69.93 39.59 78.96 36.78 77.34 52.42 68.31 55.22 69.93"/><polygon class="cls-2" points="39.59 78.96 39.59 80.99 55.22 71.97 55.22 69.93 39.59 78.96"/><polygon class="cls-3" points="55.38 7.22 57.13 6.21 54.33 4.59 52.57 5.61 55.38 7.22"/><polygon class="cls-2" points="55.38 25.28 55.38 7.22 52.57 5.61 52.57 23.66 55.38 25.28"/><polygon class="cls-3" points="55.38 7.22 57.13 6.21 57.13 24.26 55.38 25.28 55.38 7.22"/><polygon class="cls-2" points="57.29 89.22 57.29 91.25 54.49 89.63 54.49 87.6 57.29 89.22"/><polygon class="cls-3" points="72.92 80.19 57.29 89.22 54.49 87.6 70.12 78.57 72.92 80.19"/><polygon class="cls-2" points="57.29 89.22 57.29 91.25 72.92 82.22 72.92 80.19 57.29 89.22"/><polygon class="cls-4" points="70.06 19.68 70.06 85.61 40.98 68.82 40.98 2.9 70.06 19.68"/><polygon class="cls-5" points="55.97 17.27 43.85 10.27 43.85 26.15 55.97 33.15 55.97 17.27"/><polygon class="cls-6" points="55.97 55.62 43.85 48.62 43.85 64.5 55.97 71.5 55.97 55.62"/><polygon class="cls-7" points="67.2 62.36 57.71 56.88 57.71 72.75 67.2 78.23 67.2 62.36"/><polygon class="cls-3" points="67.19 43.9 67.19 42.15 43.85 28.67 43.85 30.42 67.19 43.9"/><polygon class="cls-8" points="63.74 43.95 43.85 32.47 43.85 34.22 63.74 45.7 63.74 43.95"/><polygon class="cls-3" points="67.19 51.49 67.19 49.74 43.85 36.27 43.85 38.02 67.19 51.49"/><polygon class="cls-8" points="67.19 55.29 67.19 53.54 43.85 40.06 43.85 41.81 67.19 55.29"/><polygon class="cls-3" points="59.44 52.86 43.85 43.86 43.85 45.61 59.44 54.61 59.44 52.86"/><polygon class="cls-3" points="68.81 84.94 68.81 88.96 39.73 72.17 39.73 68.15 68.81 84.94"/><polygon class="cls-2" points="69.97 84.26 68.81 84.94 39.73 68.15 40.9 67.47 69.97 84.26"/><polygon class="cls-2" points="68.81 84.94 68.81 88.96 69.97 88.29 69.97 84.26 68.81 84.94"/><polygon class="cls-3" points="68.81 18.11 68.81 20.46 39.73 3.67 39.73 1.32 68.81 18.11"/><polygon class="cls-2" points="69.97 17.44 68.81 18.11 39.73 1.32 40.9 0.65 69.97 17.44"/><polygon class="cls-2" points="68.81 18.11 68.81 20.46 69.97 19.79 69.97 17.44 68.81 18.11"/><path class="cls-3" d="M66.47,31.2c0,2.42-2,3.25-4.38,1.85s-4.38-4.49-4.38-6.91,2-3.25,4.38-1.85S66.47,28.78,66.47,31.2Z"/><path class="cls-9" d="M0,10.7v1.48l.14.4L1,14.9,1.77,16l.07.48.09.71L4.49,17l-.1-1.78a3.87,3.87,0,0,0,1.12-1.29,7.72,7.72,0,0,0,1-2.44L6,10.26a.77.77,0,0,0-.21-.32.42.42,0,0,0-.11-.35L5,8.77a5.34,5.34,0,0,0-1.44,0,3.63,3.63,0,0,0-1,1.19L2.31,6.8c-.05-1-.8-.87-.82,0v.61c0-.61-.7-.4-.68.61L.68,10.53C.72,9.67.08,9.58,0,10.7Zm3.66-.36L4,9.72l.67-.11.5.48a.63.63,0,0,0,.25.12l0,.1a2.18,2.18,0,0,0,0,.35l.11.8-.44.46A4.92,4.92,0,0,1,3.66,10.34Z"/><path class="cls-3" d="M.92,19.87A3.75,3.75,0,0,0,1.1,21a2.12,2.12,0,0,0,2.15,1.42A21.58,21.58,0,0,0,10.8,19c.19-.14.38-.29.56-.45l.13-.11,2.24-6.5-.86-2.25C10.59,9.9,9,11.38,7.69,13.43L4.44,16l-.05-.75a2.89,2.89,0,0,1-2.6.85C1.57,18,.77,18.55.92,19.87Z"/><path class="cls-10" d="M1.1,21a2.12,2.12,0,0,0,2.15,1.42A21.76,21.76,0,0,0,10.8,19V18C6.84,20.56,3.55,21.66,1.1,21Z"/><path class="cls-10" d="M6.5,14.38a8.31,8.31,0,0,0-1.61,3.7l-.45-2Z"/><path class="cls-11" d="M3.25,14.26c.44-1.29.85-2.08,1.82-2.34a4.92,4.92,0,0,1-1.41-1.58L4,9.72l.67-.11.5.48a.63.63,0,0,0,.25.12l-.72-.84-1,.28-.44.75C2.57,11.6,2.89,12.91,3.25,14.26Z"/><path class="cls-11" d="M0,11.27s0,.56.13,1.31L1,14.9,1.77,16l.07.48.6.09.27-.33,0-.65c-.46-.2-1.12-.58-1.24-1a6,6,0,0,1-.86-1.63c0-.08,1.73-2,1.7-2.1S.4,12.52.37,12.45s-.09-.2-.13-.3Z"/><path class="cls-8" d="M17.15,71.09A11.14,11.14,0,0,1,17.34,74c-.19.88-2.53,1.45-2.53,1.45s-3.27,3.08-6.05,2.87c-1.64-.13-2.19-.56-2.45-1a1.55,1.55,0,0,1,.3-1.55c.33-.45,3.73-1.89,4.58-3.25.41-.66,1.1-2,1.1-2l.29-2.58,4.51-.19-.23,3.06Z"/><path class="cls-12" d="M21.12,38.69,18.25,53.11a43.85,43.85,0,0,1-.63,18c-.88,2.37-4,1.71-6,0a115.09,115.09,0,0,0,.57-15.85l-.57-3.77s-.47-1.93-.44-9.23c0-3.75,2.14-11.91,2.14-11.91Z"/><path class="cls-8" d="M27.08,76.13a8.86,8.86,0,0,1,.37,3.34,3.45,3.45,0,0,1-1.88,1.86,5.87,5.87,0,0,1-5.17,3.44c-3.58.09-3.55-1.36-3.54-1.35a2.17,2.17,0,0,1,.82-1.52,45.66,45.66,0,0,0,3.63-3.15,7.75,7.75,0,0,0,.85-1.58l.16-2.58h4.83Z"/><path class="cls-6" d="M18.72,41.79c0,7.31-.26,11.62,1.66,15.32A42.71,42.71,0,0,0,21.32,62c.57,1.95.47,10.44.24,15.47a3.51,3.51,0,0,0,4.9.85,3.3,3.3,0,0,0,1.3-1.79c1.26-7.9,2.13-14.15-1-20,1-5.11.88-10.12.56-15.67a15.86,15.86,0,0,0-1-8.32A14.41,14.41,0,0,0,25.44,31L12.45,34C13.81,38.69,16.16,41.22,18.72,41.79Z"/><path class="cls-13" d="M24.64,57.08c4,4.1,2.84,12,1.82,21.27a3.3,3.3,0,0,0,1.3-1.79c1.26-7.9,2.13-14.15-1-20,1-5.11.88-10.12.56-15.67a15.86,15.86,0,0,0-1-8.32l-4.5,5.08C26.26,40.49,27.1,50.28,24.64,57.08Z"/><path class="cls-3" d="M12.15,32.29a23.86,23.86,0,0,1-.45,5.5c2.47,2.49,11.53,6.12,15.77.83,0-2.42-.12-4-.12-4l.26-11.75,1.07-7.19a19,19,0,0,0-5-4.12C20.25,9.34,17,8.47,12.87,9.65a46.46,46.46,0,0,0-1.68,6.25,8.81,8.81,0,0,0-.11,1.47v.86C11.17,23.48,12.13,30.87,12.15,32.29Z"/><path class="cls-14" d="M16,13c-.07.28,0,.55.17.59s.36-.16.43-.45,0-.55-.17-.59S16,12.73,16,13Z"/><path class="cls-10" d="M24.19,20.88l3.42,2-.26,11.75s.08,1.54.12,4c-4.24,5.29-13.3,1.66-15.77-.83,3.78,2.32,7.69-7,10.91-9.36Z"/><path class="cls-9" d="M22.87,11.54l-1.93-4-5.38,2.68,1.15,3C17.67,16.87,23.47,14.63,22.87,11.54Z"/><path class="cls-15" d="M22.07,9.89a3.86,3.86,0,0,1-4.13,4.18c-1.15-.74-1.24-2.16-1.24-3.58l-.78,2.08L16,15l1.44,0,1.4,1.75,2.75-2.32a3.62,3.62,0,0,0,1.48-3.24C22.66,10.59,22.42,10.28,22.07,9.89Z"/><path class="cls-11" d="M15.56,10.94c0,2.19,0,5.1,2.48,5.2,1.64,0,3.56-4.81,2.93-6.33L21,8Z"/><path class="cls-9" d="M18.4.36c2.62,0,4.11,1.3,4.21,4.13-.07,3-1.06,5.38-3.37,7a4.52,4.52,0,0,1-3.68,1.12c-1.6.06-1.88-3.9-2.1-6.75C13.63,2.83,15.45,1.15,18.4.36Z"/><path class="cls-8" d="M13.46,4.7c.59,1.44,3.17,2.48,5.78,1.81l.29,2.35,1.13-.59,1.05,1.16.39-.57c1.95-4,1.37-6.91-1.62-8.5C16.59-1.18,12.66,2.57,13.46,4.7Z"/><path class="cls-9" d="M21,9.28a2.47,2.47,0,0,0,.64-.76,1.1,1.1,0,0,0,0-1,.73.73,0,0,0-.85-.37.83.83,0,0,0-.45.5,2.62,2.62,0,0,0-.11.69l0,.63a.53.53,0,0,0,.08.41.36.36,0,0,0,.37.08A.92.92,0,0,0,21,9.28Z"/><path class="cls-9" d="M12.18,39.12a.57.57,0,0,0,.12.69l.26.1a.49.49,0,0,0,.23.66.39.39,0,0,0,0,.26.76.76,0,0,0,.25.32,1.53,1.53,0,0,0,1.1.6,14.62,14.62,0,0,0,3.36-2.27l.35-.24,1-.69-.2-.6-.59-1.74-1.28.37A5.9,5.9,0,0,0,15.28,35c-.42-.63-.38-1.3-.66-1.5-.63,0-.75.63-.59,1.49.17.39.52.7.5,1a2.55,2.55,0,0,1-.27,1c-.07.14-.14.29-.22.43a3.47,3.47,0,0,0-.63-.07,1.79,1.79,0,0,0-.62.07,2.45,2.45,0,0,0-.9,1.14C11.89,38.86,12,39.06,12.18,39.12Z"/><path class="cls-3" d="M18,38.41a1,1,0,0,1-.42,1l.32-.17C22.11,37,26,34.56,28.19,31.51l.43-.63a60.81,60.81,0,0,0,1.51-12.26c-.89-5.34-5.82-3.7-5.94,2.26a48.72,48.72,0,0,0,0,8.27c-2.93,3.05-5.54,6.6-7.37,7.43l-.07,0A2,2,0,0,1,18,38.41Z"/><path class="cls-11" d="M12.82,40.83a.76.76,0,0,0,.25.32,1.53,1.53,0,0,0,1.1.6,14.62,14.62,0,0,0,3.36-2.27l.35-.24C22.11,37,26,34.56,28.19,31.51,24.52,34.26,20.86,37,18.66,38l-.68.46A9.94,9.94,0,0,1,14.38,40a.82.82,0,0,1-.79.43l.73.33a.53.53,0,0,1-.54.49A1.36,1.36,0,0,1,12.82,40.83Z"/><path class="cls-11" d="M12.91,37.61l.22.53h.3a1.3,1.3,0,0,0,.83-1.1c-.07.14-.14.29-.22.43a3.47,3.47,0,0,0-.63-.07Z"/><path class="cls-11" d="M13.73,39.64A2,2,0,0,0,12.11,39c.09.06.1.16,0,.32A4.06,4.06,0,0,1,13.73,39.64Z"/></g></g></g></svg>