<svg id="Layer_2" data-name="Layer 2" xmlns="http://www.w3.org/2000/svg" xmlns:xlink="http://www.w3.org/1999/xlink" viewBox="0 0 864.17 938.28"><defs><style>.cls-1{fill:url(#linear-gradient);}</style><linearGradient id="linear-gradient" x1="59.05" y1="506.74" x2="923.22" y2="506.74" gradientUnits="userSpaceOnUse"><stop offset="0" stop-color="#fbb03b"/><stop offset="0.01" stop-color="#ff0"/><stop offset="1" stop-color="red"/></linearGradient></defs><path class="cls-1" d="M919.71,624.16H770.56c-114.66,0-229.37-1.65-343.93.65-64.39,1.29-83.24-8.06-108.48-60.74-21.84-45.57-17.61-93.7,8.26-139.49,18.92-33.49,39-43.77,87.77-43.8q134.74-.11,269.49,0c40.73,0,48.65-6.09,48.73-36.83.08-31.63-7.25-37.57-46.86-37.59-91,0-182.07,1.24-273-.54-45.3-.88-75.27,14-99.2,39.85-75.08,81.14-74.59,232.82.67,313.61,24.31,26.1,55.44,40,99.8,39.75,153.65-.88,307.31-.34,461-.34h44.53c1.54,9.7,3.76,17.3,3.78,24.91.1,49.37.61,98.76-1,148.11-.54,16.47-4.72,33.34-11.11,49.16-18.06,44.78-35.24,53.58-98,53.6-128.83.05-257.91-3.58-386.42,1.18-51.25,1.9-93.47-6.16-129.79-21.78-14.86-6.39-51.7-23.84-95.21-68.08C102.94,785.49,76.53,656,69.23,617.84,44.53,488.74,70.9,386.41,84,337.66c19-70.39,44.16-115.21,51.81-129.37C166.44,151.67,206.7,97.82,275.67,61.52,302.06,47.64,357.83,38,357.83,38L829.7,37.6s50.74,3.12,72.74,28.14c19.31,22,19.1,51.08,19.25,63.84,1.77,157.81,1.23,315.63,1.24,473.45C922.93,609,921.16,615,919.71,624.16Z" transform="translate(-59.05 -37.6)"/></svg>