<svg xmlns="http://www.w3.org/2000/svg" xmlns:xlink="http://www.w3.org/1999/xlink" viewBox="0 0 766.98 298.62"><defs><style>.cls-1{fill:url(#linear-gradient);}.cls-2{font-size:284.57px;}.cls-2,.cls-4{font-family:ForteMT, Forte;}.cls-3{letter-spacing:-0.02em;}.cls-4{font-size:243.4px;}.cls-5{font-size:134.22px;font-family:ErasITC-Light, Eras Light ITC;font-weight:300;}</style><linearGradient id="linear-gradient" x1="22.5" y1="240.72" x2="195.83" y2="240.72" gradientUnits="userSpaceOnUse"><stop offset="0" stop-color="#fbb03b"/><stop offset="0.01" stop-color="#ff0"/><stop offset="1" stop-color="red"/></linearGradient></defs><g id="Layer_1" data-name="Layer 1"><path class="cls-1" d="M195.12,263.94H165.21c-23,0-46-.33-69,.13-12.91.25-16.69-1.6-21.75-12-4.38-9-3.54-18.53,1.65-27.58,3.8-6.62,7.83-8.65,17.61-8.66q27,0,54.05,0c8.17,0,9.76-1.2,9.77-7.28,0-6.26-1.45-7.43-9.4-7.43-18.25,0-36.51.24-54.76-.11-9.08-.18-15.09,2.76-19.89,7.88-15.06,16-15,46,.13,62,4.88,5.16,11.12,7.9,20,7.85,30.82-.17,61.64-.06,92.46-.06H195a35.43,35.43,0,0,1,.76,4.92c0,9.77.12,19.53-.21,29.29a28.37,28.37,0,0,1-2.22,9.72c-3.63,8.85-7.07,10.59-19.65,10.6-25.84,0-51.73-.71-77.51.23-10.28.37-18.75-1.22-26-4.31-3-1.26-10.37-4.71-19.1-13.46-19.78-19.82-25.08-45.43-26.54-53-4.95-25.53.33-45.76,3-55.4A112,112,0,0,1,37.9,181.71c6.14-11.19,14.21-21.84,28.05-29C71.24,150,82.43,148,82.43,148l94.64-.07s10.18.61,14.59,5.56c3.87,4.34,3.83,10.1,3.86,12.62.35,31.2.25,62.41.25,93.61A30.8,30.8,0,0,1,195.12,263.94Z" transform="translate(-22.5 -66.45)"/></g><g id="Layer_2" data-name="Layer 2"><text class="cls-2" transform="translate(194.68 237.76) scale(0.59 1)">e<tspan class="cls-3" x="121.44" y="0">v</tspan><tspan x="238.44" y="0">en</tspan></text><text class="cls-4" transform="translate(492.29 239.76) scale(0.66 1)">t</text><text class="cls-5" transform="translate(559.29 237.88) scale(0.97 1)">con</text></g></svg>