<svg xmlns="http://www.w3.org/2000/svg" viewBox="0 0 545.01 525.43"><defs><style>.cls-1{fill:none;}.cls-2{fill:#2a2772;}.cls-3{fill:#2f1aad;}</style></defs><g id="Layer_2" data-name="Layer 2"><g id="Layer_3" data-name="Layer 3"><path class="cls-1" d="M239.63,271.33V330.2l-43.11,43.11a20.82,20.82,0,0,1-29.43,0L52.39,258.61a20.82,20.82,0,1,1,29.44-29.44l85.26,85.27a20.82,20.82,0,0,0,29.43,0Z"/><path class="cls-2" d="M52.39,229.17a20.82,20.82,0,0,0,0,29.44l114.7,114.7a20.82,20.82,0,0,0,29.43,0l43.11-43.11V496.08h-.28C107.16,496.08,0,388.92,0,256.74S107.16,17.39,239.35,17.39h.28V271.33l-43.11,43.11a20.82,20.82,0,0,1-29.43,0L81.83,229.17A20.82,20.82,0,0,0,52.39,229.17Z"/><path class="cls-3" d="M478.69,256.74c0,132.09-107,239.19-239.06,239.34V330.2L405.05,164.78a20.81,20.81,0,1,0-29.44-29.43l-136,136V17.39C371.68,17.54,478.69,124.64,478.69,256.74Z"/><path class="cls-1" d="M410.27,156.06a20.83,20.83,0,0,1-5.22,8.72L239.63,330.2V271.33l136-136a20.82,20.82,0,0,1,34.66,20.71Z"/><path class="cls-1" d="M545,0V525.43H239.63V496.08c132.05-.15,239.06-107.25,239.06-239.34s-107-239.2-239.06-239.35V0Z"/></g></g></svg>