<svg xmlns="http://www.w3.org/2000/svg" viewBox="0 0 594.94 594.94"><defs><style>.cls-1{fill:#2a2772;}.cls-2{fill:#2f1aad;}</style></defs><g id="Layer_2" data-name="Layer 2"><g id="Layer_4" data-name="Layer 4"><path class="cls-1" d="M116,132.31c-6.52,9.61-4.89,23.19,4.34,31.83l142.55,133.4L136.83,432.24c-8.16,8.73-8.12,22.31-.43,31.86l5.48,5.13c10,7,23.6,6.18,31.76-2.54L297.47,334.37V594.94C133.18,594.94,0,461.76,0,297.47S133.18,0,297.47,0V260.6l-2,2.17L152.89,129.37c-9.23-8.64-22.89-9.38-32-2.24Z"/><path class="cls-2" d="M594.94,297.47c0,164.29-133.18,297.47-297.47,297.47V334.37L299.7,332,442.05,465.2c10.16,9.51,25.68,9.43,34.67-.17s8-25.09-2.13-34.6L332.24,297.21,458.13,162.7c9-9.61,8-25.11-2.13-34.61s-25.69-9.44-34.68.16L297.47,260.6V0C461.76,0,594.94,133.18,594.94,297.47Z"/></g></g></svg>