<svg xmlns="http://www.w3.org/2000/svg" viewBox="0 0 666.44 638.56"><defs><style>.cls-1{fill:none;}.cls-2{fill:#2a2772;}.cls-3{fill:#2f1aad;}</style></defs><g id="Layer_2" data-name="Layer 2"><g id="Layer_2-2" data-name="Layer 2"><path class="cls-1" d="M653.67,623.86v14.7H0V0H326.84V42.74c-5.49-.17-11,2.73-14.8,8.69-6.15,9.76-12.33,19.52-18.23,29.43q-27.29,45.87-54.37,91.86t-54.3,91.9q-27,45.67-54,91.33L78,445.68q-27.16,45.94-54.29,91.91c-6,10.18-11.09,21-17.9,30.57C-4,582,3.73,598.68,22.41,596.78c.62-.06,1.24,0,1.87,0q151.27.24,302.56.47v26.6Z"/><path class="cls-2" d="M305.11,183.93c6.49-8.54,14.06-12.45,21.73-12V42.74c-5.49-.17-11,2.73-14.8,8.69-6.15,9.76-12.33,19.52-18.23,29.43q-27.29,45.87-54.37,91.86t-54.3,91.9q-27,45.67-54,91.33L78,445.68q-27.16,45.94-54.29,91.91c-6,10.18-11.09,21-17.9,30.57C-4,582,3.73,598.68,22.41,596.78c.62-.06,1.24,0,1.87,0q151.27.24,302.56.47V535.48l-1.51.07c-16.74.47-38.33-15.15-39.09-36.8-.8-22.58,19.3-39.32,37.28-39.71,1.12,0,2.23,0,3.32,0V439.81a6.06,6.06,0,0,1-1.29-.18c-3.2-.77-6.86-4.73-8-8.05-6.47-19-11.75-38.4-18.38-57.34a352.84,352.84,0,0,1-15.94-68c-1.4-10-1.8-20.2-2.66-30.3a273.94,273.94,0,0,1,8.26-59.69C292,204.28,297.74,193.65,305.11,183.93Z"/><path class="cls-1" d="M326.84,172V439.81a6.06,6.06,0,0,1-1.29-.18c-3.2-.77-6.86-4.73-8-8.05-6.47-19-11.75-38.4-18.38-57.34a352.84,352.84,0,0,1-15.94-68c-1.4-10-1.8-20.2-2.66-30.3a273.94,273.94,0,0,1,8.26-59.69c3.12-12,8.9-22.64,16.27-32.36C311.6,175.39,319.17,171.48,326.84,172Z"/><path class="cls-1" d="M326.84,459.08v76.4l-1.51.07c-16.74.47-38.33-15.15-39.09-36.8-.8-22.58,19.3-39.32,37.28-39.71C324.64,459,325.75,459,326.84,459.08Z"/><path class="cls-3" d="M631.89,597.25q-75.35.06-150.67,0-73.16,0-146.31,0h-8.07V535.48c22.74-1.4,39.73-18.36,38.84-39.16-1-22.51-18.23-36.3-38.84-37.24V439.81c4,.16,6.45-3.71,7.79-7.77,7-21.18,14.72-42.14,20.8-63.57,11.65-41.07,20.13-82.69,13-125.74-3.51-21.19-6.84-42.42-22-59.56-6.16-7-12.9-10.75-19.59-11.19V42.74c5.31.14,10.55,3.16,14.06,9Q367.26,96,393.35,140.31q31,52.62,62,105.28,26.47,44.85,53,89.66,27.14,45.9,54.28,91.78,26.34,44.57,52.7,89.12C626,534.08,637,551.82,647.52,569.8,656.1,584.41,648.72,597.24,631.89,597.25Z"/><path class="cls-1" d="M326.84,535.48v-76.4c20.61.94,37.88,14.73,38.84,37.24C366.57,517.12,349.58,534.08,326.84,535.48Z"/><path class="cls-1" d="M355.43,368.47c-6.08,21.43-13.82,42.39-20.8,63.57-1.34,4.06-3.83,7.93-7.79,7.77V172c6.69.44,13.43,4.22,19.59,11.19,15.17,17.14,18.5,38.37,22,59.56C375.56,285.78,367.08,327.4,355.43,368.47Z"/><path class="cls-1" d="M653.67,0V623.86H326.84v-26.6h8.07q73.15.09,146.31,0,75.33,0,150.67,0c16.83,0,24.21-12.84,15.63-27.45-10.55-18-21.51-35.72-32.16-53.65q-26.45-44.5-52.7-89.12-27.15-45.88-54.28-91.78-26.52-44.82-53-89.66-31-52.62-62-105.28Q367.19,96,340.9,51.78c-3.51-5.88-8.75-8.9-14.06-9V0Z"/><rect class="cls-1" x="653.67" width="12.77" height="623.86"/></g></g></svg>